<?xml version="1.0"?>
<svg width="72" height="72" xmlns="http://www.w3.org/2000/svg" xmlns:svg="http://www.w3.org/2000/svg">
 <defs>
  <path d="m2.46,0.16c-0.18,0.06 -0.41,0.34 -0.41,0.51c0,0.18 0.23,0.4 0.42,0.51c0.16,0.1 0.41,0.06 0.61,0.1c0.74,0.14 1.15,0.64 1.11,1.39c-0.03,0.74 -0.43,1.27 -1.02,1.36c-0.6,0.08 -1.36,-0.44 -1.56,-1.06c-0.18,-0.55 -0.1,-1.09 0,-1.64c0.03,-0.16 -0.07,-0.45 -0.19,-0.51c-0.16,-0.07 -0.47,-0.04 -0.6,0.07a1.39,1.39 0 0 0 -0.44,0.67c-0.11,0.4 -0.13,0.82 -0.18,1.23c0.2,1.62 1.79,2.86 3.3,2.53c1.07,-0.23 1.84,-1.08 2,-2.2c0.17,-1.15 -0.32,-2.21 -1.27,-2.7c-0.39,-0.2 -0.79,-0.36 -1.22,-0.36c-0.18,0 -0.36,0.03 -0.55,0.1z" id="a"/>
  <path d="m2.46,0.16c-0.18,0.06 -0.41,0.34 -0.41,0.51c0,0.18 0.23,0.4 0.42,0.51c0.16,0.1 0.41,0.06 0.61,0.1c0.74,0.14 1.15,0.64 1.11,1.39c-0.03,0.74 -0.43,1.27 -1.02,1.36c-0.6,0.08 -1.36,-0.44 -1.56,-1.06c-0.18,-0.55 -0.1,-1.09 0,-1.64c0.03,-0.16 -0.07,-0.45 -0.19,-0.51c-0.16,-0.07 -0.47,-0.04 -0.6,0.07a1.39,1.39 0 0 0 -0.44,0.67c-0.11,0.4 -0.13,0.82 -0.18,1.23c0.2,1.62 1.79,2.86 3.3,2.53c1.07,-0.23 1.84,-1.08 2,-2.2c0.17,-1.15 -0.32,-2.21 -1.27,-2.7c-0.39,-0.2 -0.79,-0.36 -1.22,-0.36c-0.18,0 -0.36,0.03 -0.55,0.1z" id="c"/>
  <path d="m2.46,0.16c-0.18,0.06 -0.41,0.34 -0.41,0.51c0,0.18 0.23,0.4 0.42,0.51c0.16,0.1 0.41,0.06 0.61,0.1c0.74,0.14 1.15,0.64 1.11,1.39c-0.03,0.74 -0.43,1.27 -1.02,1.36c-0.6,0.08 -1.36,-0.44 -1.56,-1.06c-0.18,-0.55 -0.1,-1.09 0,-1.64c0.03,-0.16 -0.07,-0.45 -0.19,-0.51c-0.16,-0.07 -0.47,-0.04 -0.6,0.07a1.39,1.39 0 0 0 -0.44,0.67c-0.11,0.4 -0.13,0.82 -0.18,1.23c0.2,1.62 1.79,2.86 3.3,2.53c1.07,-0.23 1.84,-1.08 2,-2.2c0.17,-1.15 -0.32,-2.21 -1.27,-2.7c-0.39,-0.2 -0.79,-0.36 -1.22,-0.36c-0.18,0 -0.36,0.03 -0.55,0.1z" id="e"/>
  <path d="m1.68,0.17c-0.25,0.06 -0.52,0.21 -0.69,0.4c-0.28,0.31 -0.48,0.68 -0.71,1.02c-0.54,1.55 0.32,3.36 1.82,3.74c1.06,0.27 2.13,-0.15 2.78,-1.08c0.66,-0.95 0.69,-2.12 0.07,-2.98c-0.37,-0.5 -0.81,-0.95 -1.47,-1.03c-0.2,-0.02 -0.52,0.12 -0.6,0.28c-0.08,0.16 0.03,0.46 0.15,0.64c0.1,0.16 0.33,0.24 0.5,0.37c0.61,0.45 0.74,1.08 0.38,1.74c-0.36,0.65 -0.96,0.94 -1.53,0.75c-0.57,-0.19 -1.01,-0.99 -0.92,-1.64c0.09,-0.57 0.4,-1.02 0.74,-1.47c0.09,-0.13 0.13,-0.43 0.05,-0.54c-0.1,-0.11 -0.32,-0.21 -0.49,-0.21a0.36,0.36 0 0 0 -0.08,0.01z" id="g"/>
  <path d="m1.68,0.17c-0.25,0.06 -0.52,0.21 -0.69,0.4c-0.28,0.31 -0.48,0.68 -0.71,1.02c-0.54,1.55 0.32,3.36 1.82,3.74c1.06,0.27 2.13,-0.15 2.78,-1.08c0.66,-0.95 0.69,-2.12 0.07,-2.98c-0.37,-0.5 -0.81,-0.95 -1.47,-1.03c-0.2,-0.02 -0.52,0.12 -0.6,0.28c-0.08,0.16 0.03,0.46 0.15,0.64c0.1,0.16 0.33,0.24 0.5,0.37c0.61,0.45 0.74,1.08 0.38,1.74c-0.36,0.65 -0.96,0.94 -1.53,0.75c-0.57,-0.19 -1.01,-0.99 -0.92,-1.64c0.09,-0.57 0.4,-1.02 0.74,-1.47c0.09,-0.13 0.13,-0.43 0.05,-0.54c-0.1,-0.11 -0.32,-0.21 -0.49,-0.21a0.36,0.36 0 0 0 -0.08,0.01z" id="i"/>
  <path d="m1.68,0.17c-0.25,0.06 -0.52,0.21 -0.69,0.4c-0.28,0.31 -0.48,0.68 -0.71,1.02c-0.54,1.55 0.32,3.36 1.82,3.74c1.06,0.27 2.13,-0.15 2.78,-1.08c0.66,-0.95 0.69,-2.12 0.07,-2.98c-0.37,-0.5 -0.81,-0.95 -1.47,-1.03c-0.2,-0.02 -0.52,0.12 -0.6,0.28c-0.08,0.16 0.03,0.46 0.15,0.64c0.1,0.16 0.33,0.24 0.5,0.37c0.61,0.45 0.74,1.08 0.38,1.74c-0.36,0.65 -0.96,0.94 -1.53,0.75c-0.57,-0.19 -1.01,-0.99 -0.92,-1.64c0.09,-0.57 0.4,-1.02 0.74,-1.47c0.09,-0.13 0.13,-0.43 0.05,-0.54c-0.1,-0.11 -0.32,-0.21 -0.49,-0.21a0.36,0.36 0 0 0 -0.08,0.01z" id="k"/>
  <path d="m2.5,0.28c-0.4,0.11 -0.77,0.32 -1.15,0.49c-1.27,1.02 -1.49,3.02 -0.42,4.13c0.76,0.8 1.88,1.01 2.92,0.56c1.07,-0.46 1.72,-1.43 1.64,-2.5c-0.05,-0.62 -0.18,-1.23 -0.7,-1.64c-0.16,-0.12 -0.51,-0.17 -0.66,-0.08c-0.15,0.09 -0.22,0.4 -0.21,0.62c0,0.19 0.16,0.38 0.23,0.57c0.28,0.71 0.06,1.31 -0.6,1.68c-0.65,0.36 -1.31,0.3 -1.69,-0.17c-0.39,-0.46 -0.34,-1.37 0.09,-1.87c0.37,-0.45 0.87,-0.66 1.39,-0.86c0.16,-0.06 0.35,-0.3 0.33,-0.43c-0.02,-0.18 -0.21,-0.42 -0.37,-0.48a1.4,1.4 0 0 0 -0.46,-0.07c-0.12,0 -0.23,0.01 -0.34,0.05z" id="m"/>
  <path d="m2.5,0.28c-0.4,0.11 -0.77,0.32 -1.15,0.49c-1.27,1.02 -1.49,3.02 -0.42,4.13c0.76,0.8 1.88,1.01 2.92,0.56c1.07,-0.46 1.72,-1.43 1.64,-2.5c-0.05,-0.62 -0.18,-1.23 -0.7,-1.64c-0.16,-0.12 -0.51,-0.17 -0.66,-0.08c-0.15,0.09 -0.22,0.4 -0.21,0.62c0,0.19 0.16,0.38 0.23,0.57c0.28,0.71 0.06,1.31 -0.6,1.68c-0.65,0.36 -1.31,0.3 -1.69,-0.17c-0.39,-0.46 -0.34,-1.37 0.09,-1.87c0.37,-0.45 0.87,-0.66 1.39,-0.86c0.16,-0.06 0.35,-0.3 0.33,-0.43c-0.02,-0.18 -0.21,-0.42 -0.37,-0.48a1.4,1.4 0 0 0 -0.46,-0.07c-0.12,0 -0.23,0.01 -0.34,0.05z" id="o"/>
  <path d="m2.5,0.28c-0.4,0.11 -0.77,0.32 -1.15,0.49c-1.27,1.02 -1.49,3.02 -0.42,4.13c0.76,0.8 1.88,1.01 2.92,0.56c1.07,-0.46 1.72,-1.43 1.64,-2.5c-0.05,-0.62 -0.18,-1.23 -0.7,-1.64c-0.16,-0.12 -0.51,-0.17 -0.66,-0.08c-0.15,0.09 -0.22,0.4 -0.21,0.62c0,0.19 0.16,0.38 0.23,0.57c0.28,0.71 0.06,1.31 -0.6,1.68c-0.65,0.36 -1.31,0.3 -1.69,-0.17c-0.39,-0.46 -0.34,-1.37 0.09,-1.87c0.37,-0.45 0.87,-0.66 1.39,-0.86c0.16,-0.06 0.35,-0.3 0.33,-0.43c-0.02,-0.18 -0.21,-0.42 -0.37,-0.48a1.4,1.4 0 0 0 -0.46,-0.07c-0.12,0 -0.23,0.01 -0.34,0.05z" id="q"/>
  <path d="m1.57,0.25c-0.26,0.06 -0.52,0.21 -0.69,0.4c-0.28,0.31 -0.48,0.68 -0.71,1.02c-0.55,1.55 0.32,3.36 1.82,3.74c1.06,0.27 2.13,-0.15 2.78,-1.08c0.66,-0.95 0.69,-2.12 0.06,-2.98c-0.36,-0.5 -0.8,-0.95 -1.46,-1.03c-0.2,-0.02 -0.52,0.12 -0.6,0.28c-0.08,0.16 0.03,0.46 0.15,0.64c0.1,0.16 0.33,0.24 0.5,0.37c0.6,0.45 0.74,1.08 0.37,1.74c-0.35,0.65 -0.95,0.94 -1.52,0.75c-0.57,-0.19 -1.01,-0.99 -0.92,-1.64c0.09,-0.57 0.4,-1.02 0.73,-1.47c0.1,-0.13 0.14,-0.43 0.06,-0.54c-0.1,-0.11 -0.32,-0.21 -0.49,-0.21a0.36,0.36 0 0 0 -0.08,0.01z" id="s"/>
  <path d="m1.57,0.25c-0.26,0.06 -0.52,0.21 -0.69,0.4c-0.28,0.31 -0.48,0.68 -0.71,1.02c-0.55,1.55 0.32,3.36 1.82,3.74c1.06,0.27 2.13,-0.15 2.78,-1.08c0.66,-0.95 0.69,-2.12 0.06,-2.98c-0.36,-0.5 -0.8,-0.95 -1.46,-1.03c-0.2,-0.02 -0.52,0.12 -0.6,0.28c-0.08,0.16 0.03,0.46 0.15,0.64c0.1,0.16 0.33,0.24 0.5,0.37c0.6,0.45 0.74,1.08 0.37,1.74c-0.35,0.65 -0.95,0.94 -1.52,0.75c-0.57,-0.19 -1.01,-0.99 -0.92,-1.64c0.09,-0.57 0.4,-1.02 0.73,-1.47c0.1,-0.13 0.14,-0.43 0.06,-0.54c-0.1,-0.11 -0.32,-0.21 -0.49,-0.21a0.36,0.36 0 0 0 -0.08,0.01z" id="u"/>
  <path d="m1.57,0.25c-0.26,0.06 -0.52,0.21 -0.69,0.4c-0.28,0.31 -0.48,0.68 -0.71,1.02c-0.55,1.55 0.32,3.36 1.82,3.74c1.06,0.27 2.13,-0.15 2.78,-1.08c0.66,-0.95 0.69,-2.12 0.06,-2.98c-0.36,-0.5 -0.8,-0.95 -1.46,-1.03c-0.2,-0.02 -0.52,0.12 -0.6,0.28c-0.08,0.16 0.03,0.46 0.15,0.64c0.1,0.16 0.33,0.24 0.5,0.37c0.6,0.45 0.74,1.08 0.37,1.74c-0.35,0.65 -0.95,0.94 -1.52,0.75c-0.57,-0.19 -1.01,-0.99 -0.92,-1.64c0.09,-0.57 0.4,-1.02 0.73,-1.47c0.1,-0.13 0.14,-0.43 0.06,-0.54c-0.1,-0.11 -0.32,-0.21 -0.49,-0.21a0.36,0.36 0 0 0 -0.08,0.01z" id="w"/>
  <path d="m0.4,1.47c-0.58,1 -0.52,2.17 0.17,2.98c0.41,0.47 0.88,0.88 1.55,0.9c0.2,0.01 0.51,-0.16 0.57,-0.33c0.07,-0.16 -0.06,-0.45 -0.2,-0.62c-0.11,-0.15 -0.35,-0.21 -0.53,-0.33c-0.63,-0.4 -0.82,-1.02 -0.51,-1.7c0.3,-0.67 0.88,-1.02 1.46,-0.87c0.59,0.14 1.09,0.9 1.05,1.56c-0.04,0.57 -0.32,1.05 -0.62,1.52c-0.08,0.14 -0.1,0.44 -0.01,0.54c0.13,0.13 0.42,0.21 0.59,0.16c0.25,-0.08 0.5,-0.25 0.66,-0.46c0.25,-0.32 0.42,-0.71 0.62,-1.07c0.42,-1.58 -0.59,-3.32 -2.12,-3.58a2.65,2.65 0 0 0 -0.44,-0.04c-0.91,0 -1.75,0.49 -2.24,1.34z" id="y"/>
  <path d="m0.4,1.47c-0.58,1 -0.52,2.17 0.17,2.98c0.41,0.47 0.88,0.88 1.55,0.9c0.2,0.01 0.51,-0.16 0.57,-0.33c0.07,-0.16 -0.06,-0.45 -0.2,-0.62c-0.11,-0.15 -0.35,-0.21 -0.53,-0.33c-0.63,-0.4 -0.82,-1.02 -0.51,-1.7c0.3,-0.67 0.88,-1.02 1.46,-0.87c0.59,0.14 1.09,0.9 1.05,1.56c-0.04,0.57 -0.32,1.05 -0.62,1.52c-0.08,0.14 -0.1,0.44 -0.01,0.54c0.13,0.13 0.42,0.21 0.59,0.16c0.25,-0.08 0.5,-0.25 0.66,-0.46c0.25,-0.32 0.42,-0.71 0.62,-1.07c0.42,-1.58 -0.59,-3.32 -2.12,-3.58a2.65,2.65 0 0 0 -0.44,-0.04c-0.91,0 -1.75,0.49 -2.24,1.34z" id="A"/>
  <path d="m0.4,1.47c-0.58,1 -0.52,2.17 0.17,2.98c0.41,0.47 0.88,0.88 1.55,0.9c0.2,0.01 0.51,-0.16 0.57,-0.33c0.07,-0.16 -0.06,-0.45 -0.2,-0.62c-0.11,-0.15 -0.35,-0.21 -0.53,-0.33c-0.63,-0.4 -0.82,-1.02 -0.51,-1.7c0.3,-0.67 0.88,-1.02 1.46,-0.87c0.59,0.14 1.09,0.9 1.05,1.56c-0.04,0.57 -0.32,1.05 -0.62,1.52c-0.08,0.14 -0.1,0.44 -0.01,0.54c0.13,0.13 0.42,0.21 0.59,0.16c0.25,-0.08 0.5,-0.25 0.66,-0.46c0.25,-0.32 0.42,-0.71 0.62,-1.07c0.42,-1.58 -0.59,-3.32 -2.12,-3.58a2.65,2.65 0 0 0 -0.44,-0.04c-0.91,0 -1.75,0.49 -2.24,1.34z" id="C"/>
  <path d="m1.57,0.45c-0.98,0.49 -1.53,1.5 -1.41,2.62c0.12,1.16 0.86,2.06 1.89,2.31c0.61,0.14 1.23,0.2 1.78,-0.17c0.17,-0.12 0.32,-0.43 0.28,-0.61c-0.05,-0.17 -0.32,-0.32 -0.53,-0.39c-0.19,-0.05 -0.41,0.04 -0.62,0.05c-0.75,0.05 -1.27,-0.34 -1.42,-1.07c-0.15,-0.73 0.11,-1.34 0.67,-1.57c0.56,-0.23 1.41,0.1 1.76,0.65c0.31,0.49 0.37,1.03 0.4,1.59c0.01,0.17 0.18,0.42 0.31,0.45c0.17,0.03 0.46,-0.08 0.57,-0.22c0.15,-0.21 0.26,-0.5 0.26,-0.75c0.01,-0.42 -0.08,-0.83 -0.12,-1.24c-0.45,-1.15 -1.61,-1.9 -2.74,-1.9c-0.37,0 -0.74,0.08 -1.08,0.25z" id="E"/>
  <path d="m1.57,0.45c-0.98,0.49 -1.53,1.5 -1.41,2.62c0.12,1.16 0.86,2.06 1.89,2.31c0.61,0.14 1.23,0.2 1.78,-0.17c0.17,-0.12 0.32,-0.43 0.28,-0.61c-0.05,-0.17 -0.32,-0.32 -0.53,-0.39c-0.19,-0.05 -0.41,0.04 -0.62,0.05c-0.75,0.05 -1.27,-0.34 -1.42,-1.07c-0.15,-0.73 0.11,-1.34 0.67,-1.57c0.56,-0.23 1.41,0.1 1.76,0.65c0.31,0.49 0.37,1.03 0.4,1.59c0.01,0.17 0.18,0.42 0.31,0.45c0.17,0.03 0.46,-0.08 0.57,-0.22c0.15,-0.21 0.26,-0.5 0.26,-0.75c0.01,-0.42 -0.08,-0.83 -0.12,-1.24c-0.45,-1.15 -1.61,-1.9 -2.74,-1.9c-0.37,0 -0.74,0.08 -1.08,0.25z" id="G"/>
  <path d="m1.57,0.45c-0.98,0.49 -1.53,1.5 -1.41,2.62c0.12,1.16 0.86,2.06 1.89,2.31c0.61,0.14 1.23,0.2 1.78,-0.17c0.17,-0.12 0.32,-0.43 0.28,-0.61c-0.05,-0.17 -0.32,-0.32 -0.53,-0.39c-0.19,-0.05 -0.41,0.04 -0.62,0.05c-0.75,0.05 -1.27,-0.34 -1.42,-1.07c-0.15,-0.73 0.11,-1.34 0.67,-1.57c0.56,-0.23 1.41,0.1 1.76,0.65c0.31,0.49 0.37,1.03 0.4,1.59c0.01,0.17 0.18,0.42 0.31,0.45c0.17,0.03 0.46,-0.08 0.57,-0.22c0.15,-0.21 0.26,-0.5 0.26,-0.75c0.01,-0.42 -0.08,-0.83 -0.12,-1.24c-0.45,-1.15 -1.61,-1.9 -2.74,-1.9c-0.37,0 -0.74,0.08 -1.08,0.25z" id="I"/>
 </defs>
 <g class="layer">
  <title>Layer 1</title>
  <g fill="none" fill-rule="evenodd" id="svg_1" transform="matrix(1 0 0 1 -1 1)">
   <path d="m52.54,12.15l-29.96,-5.02a9.37,9.37 0 0 0 -8.01,2.45l-9.68,9.22a9.3,9.3 0 0 0 -2.23,10.17l12.39,31.14c1.68,4.22 6.16,6.62 10.61,5.69l32.7,-6.82a9.33,9.33 0 0 0 7.36,-7.93l2.01,-15.49a9.3,9.3 0 0 0 -1.15,-5.82l-7.47,-13.02a9.35,9.35 0 0 0 -6.57,-4.57" fill="#d6b588" id="svg_2"/>
   <g id="svg_3" transform="translate(10.651 17.19)">
    <ellipse cx="30.93" cy="19.52" fill="#FFF" id="svg_4" rx="28.13" ry="17.39"/>
    <g fill="#231F20" id="svg_5">
     <path d="m28.64,0.48c-8.77,0.67 -15.86,9.34 -16.83,17.77c-0.41,3.48 0.19,7.75 1.71,10.92c1.92,4.02 5.62,6.44 9.65,8.05c4.62,1.86 10.02,2.52 14.7,0.49c7.99,-3.47 12.3,-13.93 10.64,-22.21c-1.45,-7.26 -8.25,-14.52 -15.95,-14.91c-1.34,-0.07 -2.08,2.57 -0.43,2.66c5.63,0.28 11.06,5.46 13.13,10.39c2.91,6.92 0.4,16.73 -6.14,20.8c-4.01,2.49 -9.08,2.19 -13.41,0.74c-3.02,-1.02 -6.15,-2.56 -8.28,-5c-2.15,-2.47 -2.89,-5.58 -3.2,-8.76c-0.4,-4.15 0.68,-7.91 3.03,-11.37c2.54,-3.72 6.37,-6.57 10.96,-6.92c1.34,-0.1 2.07,-2.78 0.42,-2.65" id="svg_6"/>
     <path d="m0.35,20.3c1.94,5.81 6.34,11.13 11.4,14.47c5.07,3.34 11,4.85 17.05,4.79c6.87,-0.08 13.97,-1.02 20.14,-4.21c4.15,-2.15 7.57,-5.4 9.86,-9.47c0.51,-0.9 0.95,-1.82 1.34,-2.77c0.37,-0.9 1.02,-2.15 0.91,-3.13c-0.07,-0.59 -0.36,-1.18 -0.59,-1.73c-3.01,-7.39 -9.39,-13.27 -16.85,-15.99c-6.42,-2.35 -13.49,-2.59 -20.21,-1.53c-6.36,1.01 -12.28,3.69 -16.78,8.37c-1.21,1.27 -2.28,2.64 -3.26,4.09c-0.75,1.1 0.72,3.48 1.63,2.13c3.26,-4.82 7.73,-8.49 13.26,-10.4c5.73,-1.97 12.19,-2.44 18.18,-1.64c8.35,1.13 16,5.46 20.45,12.73a24.24,24.24 0 0 1 1.68,3.28c0.11,0.26 0.57,1.06 0.27,0.65c0.06,0.09 0.09,0.26 0.12,0.36l0.06,-1.05c-1.26,3.96 -3.36,7.63 -6.53,10.38c-4.45,3.86 -10.22,5.7 -15.97,6.54c-6.81,0.99 -14.04,1.01 -20.42,-1.88c-4.21,-1.92 -7.79,-4.98 -10.49,-8.72a27.48,27.48 0 0 1 -2.49,-4.2c-0.21,-0.44 -0.4,-0.89 -0.59,-1.34c-0.16,-0.39 -0.2,-0.54 -0.09,-0.24c-0.56,-1.66 -2.65,-1.19 -2.08,0.51" id="svg_7"/>
     <path d="m1.44,21.45c1.53,0 1.25,-2.8 -0.1,-2.8c-1.53,0 -1.26,2.8 0.1,2.8" id="svg_8"/>
    </g>
    <g id="svg_9" transform="translate(19.661 10.278)">
     <mask id="b">
      <use href="#a" id="svg_10"/>
     </mask>
     <path d="m-2.17,8.68l-0.96,-10.94l11.04,-0.97l0.96,10.95l-11.04,0.96z" fill="#000" id="svg_11" mask="url(#b)"/>
    </g>
    <g id="svg_12" transform="translate(19.661 10.278)">
     <mask id="d">
      <use href="#c" id="svg_13"/>
     </mask>
     <path d="m-2.17,8.68l-0.96,-10.94l11.04,-0.97l0.96,10.95l-11.04,0.96z" id="svg_14" mask="url(#d)" stroke="#000" stroke-width="0.5"/>
    </g>
    <g id="svg_15" transform="translate(19.661 10.278)">
     <mask id="f">
      <use href="#e" id="svg_16"/>
     </mask>
     <path d="m18.46,36.93l-3.57,-40.72l-41.23,3.61l3.57,40.72l41.23,-3.61z" id="svg_17" mask="url(#f)" stroke="#000" stroke-width="0.5"/>
    </g>
    <path d="m19.86,13.07c0.05,-0.41 0.07,-0.84 0.18,-1.23c0.07,-0.25 0.24,-0.5 0.44,-0.67c0.13,-0.11 0.44,-0.14 0.6,-0.07c0.12,0.06 0.22,0.34 0.19,0.51c-0.1,0.55 -0.18,1.09 0,1.64c0.21,0.62 0.96,1.14 1.56,1.06c0.59,-0.09 0.99,-0.62 1.03,-1.36c0.03,-0.75 -0.38,-1.26 -1.12,-1.39c-0.2,-0.04 -0.45,0 -0.61,-0.1c-0.19,-0.11 -0.42,-0.33 -0.42,-0.51c0,-0.18 0.23,-0.45 0.42,-0.52c0.62,-0.23 1.21,-0.02 1.76,0.27c0.95,0.49 1.44,1.55 1.28,2.7c-0.16,1.12 -0.94,1.97 -2.01,2.2c-1.51,0.33 -3.1,-0.91 -3.3,-2.53z" id="svg_18" stroke="#000" stroke-width="0.5"/>
    <g id="svg_19" transform="translate(27.924 10.278)">
     <mask id="h">
      <use href="#g" id="svg_20"/>
     </mask>
     <path d="m-4.47,5.81l4.02,-10.23l10.32,4.07l-4.03,10.22l-10.31,-4.06z" fill="#000" id="svg_21" mask="url(#h)"/>
    </g>
    <g id="svg_22" transform="translate(27.924 10.278)">
     <mask id="j">
      <use href="#i" id="svg_23"/>
     </mask>
     <path d="m-4.47,5.81l4.02,-10.23l10.32,4.07l-4.03,10.22l-10.31,-4.06z" id="svg_24" mask="url(#j)" stroke="#000" stroke-width="0.5"/>
    </g>
    <g id="svg_25" transform="translate(27.924 10.278)">
     <mask id="l">
      <use href="#k" id="svg_26"/>
     </mask>
     <path d="m1.38,40.29l14.98,-38.03l-38.5,-15.17l-14.98,38.03l38.5,15.17z" id="svg_27" mask="url(#l)" stroke="#000" stroke-width="0.5"/>
    </g>
    <path d="m28.2,11.87c0.23,-0.34 0.44,-0.72 0.71,-1.02c0.17,-0.19 0.44,-0.34 0.69,-0.4c0.17,-0.04 0.46,0.07 0.57,0.2c0.09,0.11 0.05,0.41 -0.05,0.54c-0.34,0.45 -0.65,0.9 -0.73,1.47c-0.1,0.65 0.34,1.45 0.92,1.64c0.56,0.19 1.16,-0.11 1.52,-0.75c0.36,-0.66 0.23,-1.29 -0.37,-1.75c-0.17,-0.12 -0.4,-0.2 -0.51,-0.36c-0.12,-0.18 -0.22,-0.48 -0.15,-0.64c0.08,-0.16 0.41,-0.3 0.61,-0.28c0.65,0.07 1.09,0.52 1.46,1.03c0.63,0.86 0.6,2.03 -0.07,2.98c-0.64,0.93 -1.71,1.35 -2.78,1.07c-1.49,-0.38 -2.36,-2.19 -1.82,-3.73z" id="svg_28" stroke="#000" stroke-width="0.5"/>
    <g id="svg_29" transform="translate(35.903 9.993)">
     <mask id="n">
      <use href="#m" id="svg_30"/>
     </mask>
     <path d="m-4.91,1.83l8.83,-6.54l6.6,8.9l-8.82,6.55l-6.61,-8.91z" fill="#000" id="svg_31" mask="url(#n)"/>
    </g>
    <g id="svg_32" transform="translate(35.903 9.993)">
     <mask id="p">
      <use href="#o" id="svg_33"/>
     </mask>
     <path d="m-4.91,1.83l8.83,-6.54l6.6,8.9l-8.82,6.55l-6.61,-8.91z" id="svg_34" mask="url(#p)" stroke="#000" stroke-width="0.5"/>
    </g>
    <g id="svg_35" transform="translate(35.903 9.993)">
     <mask id="r">
      <use href="#q" id="svg_36"/>
     </mask>
     <path d="m-18.17,34.2l32.83,-24.36l-24.66,-33.24l-32.83,24.36l24.66,33.24z" id="svg_37" mask="url(#r)" stroke="#000" stroke-width="0.5"/>
    </g>
    <path d="m37.26,10.76c0.38,-0.17 0.75,-0.38 1.14,-0.49a1.39,1.39 0 0 1 0.8,0.03c0.17,0.05 0.35,0.3 0.38,0.47c0.01,0.14 -0.18,0.37 -0.33,0.43c-0.53,0.2 -1.03,0.42 -1.4,0.86c-0.43,0.5 -0.48,1.41 -0.09,1.88c0.38,0.46 1.05,0.52 1.69,0.16c0.66,-0.36 0.88,-0.97 0.6,-1.67c-0.07,-0.2 -0.23,-0.39 -0.23,-0.58c0,-0.22 0.06,-0.53 0.21,-0.62c0.16,-0.09 0.5,-0.04 0.66,0.08c0.52,0.41 0.66,1.02 0.7,1.65c0.08,1.06 -0.57,2.03 -1.63,2.49c-1.04,0.45 -2.17,0.24 -2.93,-0.55c-1.07,-1.12 -0.85,-3.11 0.43,-4.14z" id="svg_38" stroke="#000" stroke-width="0.5"/>
    <g id="svg_39" transform="translate(19.946 24.24)">
     <mask id="t">
      <use href="#s" id="svg_40"/>
     </mask>
     <path d="m-4.58,5.89l4.02,-10.22l10.32,4.06l-4.03,10.22l-10.31,-4.06z" fill="#000" id="svg_41" mask="url(#t)"/>
    </g>
    <g id="svg_42" transform="translate(19.946 24.24)">
     <mask id="v">
      <use href="#u" id="svg_43"/>
     </mask>
     <path d="m-4.58,5.89l4.02,-10.22l10.32,4.06l-4.03,10.22l-10.31,-4.06z" id="svg_44" mask="url(#v)" stroke="#000" stroke-width="0.5"/>
    </g>
    <g id="svg_45" transform="translate(19.946 24.24)">
     <mask id="x">
      <use href="#w" id="svg_46"/>
     </mask>
     <path d="m1.27,40.37l14.98,-38.03l-38.5,-15.17l-14.98,38.03l38.5,15.17z" id="svg_47" mask="url(#x)" stroke="#000" stroke-width="0.5"/>
    </g>
    <path d="m20.11,25.91c0.23,-0.34 0.44,-0.71 0.71,-1.02c0.17,-0.19 0.44,-0.34 0.69,-0.4c0.17,-0.04 0.46,0.07 0.57,0.2c0.09,0.11 0.05,0.41 -0.05,0.54c-0.34,0.45 -0.65,0.9 -0.73,1.47c-0.1,0.65 0.34,1.45 0.92,1.64c0.56,0.19 1.16,-0.1 1.52,-0.75c0.37,-0.66 0.23,-1.29 -0.37,-1.74c-0.17,-0.13 -0.4,-0.21 -0.51,-0.37c-0.11,-0.18 -0.22,-0.48 -0.14,-0.64c0.08,-0.16 0.4,-0.3 0.6,-0.27c0.66,0.07 1.09,0.52 1.46,1.02c0.63,0.86 0.6,2.03 -0.07,2.98c-0.64,0.93 -1.71,1.35 -2.77,1.08c-1.5,-0.38 -2.37,-2.19 -1.83,-3.74z" id="svg_48" stroke="#000" stroke-width="0.5"/>
    <g id="svg_49" transform="translate(27.924 24.24)">
     <mask id="z">
      <use href="#y" id="svg_50"/>
     </mask>
     <path d="m9.6,-0.84l-3.19,10.52l-10.61,-3.23l3.19,-10.51l10.61,3.22z" fill="#000" id="svg_51" mask="url(#z)"/>
    </g>
    <g id="svg_52" transform="translate(27.924 24.24)">
     <mask id="B">
      <use href="#A" id="svg_53"/>
     </mask>
     <path d="m9.6,-0.84l-3.19,10.52l-10.61,-3.23l3.19,-10.51l10.61,3.22z" id="svg_54" mask="url(#B)" stroke="#000" stroke-width="0.5"/>
    </g>
    <g id="svg_55" transform="translate(27.924 24.24)">
     <mask id="D">
      <use href="#C" id="svg_56"/>
     </mask>
     <path d="m0.99,-34.74l-11.88,39.11l39.6,12.04l11.88,-39.11l-39.6,-12.04z" id="svg_57" mask="url(#D)" stroke="#000" stroke-width="0.5"/>
    </g>
    <path d="m33.13,27.99c-0.21,0.36 -0.38,0.75 -0.63,1.08c-0.15,0.2 -0.41,0.37 -0.66,0.45c-0.16,0.05 -0.46,-0.03 -0.58,-0.16c-0.09,-0.1 -0.08,-0.4 0.01,-0.54c0.3,-0.47 0.57,-0.95 0.61,-1.52c0.04,-0.66 -0.46,-1.42 -1.05,-1.57c-0.58,-0.14 -1.15,0.2 -1.46,0.88c-0.31,0.68 -0.12,1.3 0.52,1.7c0.17,0.11 0.41,0.17 0.53,0.33c0.13,0.17 0.26,0.46 0.2,0.62c-0.07,0.17 -0.38,0.34 -0.58,0.33c-0.66,-0.02 -1.13,-0.43 -1.54,-0.91c-0.7,-0.8 -0.76,-1.97 -0.17,-2.98c0.56,-0.98 1.6,-1.47 2.68,-1.29c1.52,0.26 2.53,2 2.12,3.58z" id="svg_58" stroke="#000" stroke-width="0.5"/>
    <g id="svg_59">
     <g id="svg_60" transform="translate(35.903 24.24)">
      <mask id="F">
       <use href="#E" id="svg_61"/>
      </mask>
      <path d="m6.25,-4.2l3.6,10.39l-10.48,3.62l-3.6,-10.38l10.48,-3.63z" fill="#000" id="svg_62" mask="url(#F)"/>
     </g>
     <g id="svg_63" transform="translate(35.903 24.24)">
      <mask id="H">
       <use href="#G" id="svg_64"/>
      </mask>
      <path d="m6.25,-4.2l3.6,10.39l-10.48,3.62l-3.6,-10.38l10.48,-3.63z" id="svg_65" mask="url(#H)" stroke="#000" stroke-width="0.5"/>
     </g>
    </g>
    <g id="svg_66" transform="translate(35.903 24.24)">
     <mask id="J">
      <use href="#I" id="svg_67"/>
     </mask>
     <path d="m-20.64,-26.56l13.38,38.62l39.1,-13.54l-13.37,-38.63l-39.11,13.55z" id="svg_68" mask="url(#J)" stroke="#000" stroke-width="0.5"/>
    </g>
    <g id="svg_69">
     <path d="m41.29,26.34c0.05,0.41 0.13,0.82 0.13,1.24c-0.01,0.25 -0.11,0.54 -0.27,0.75c-0.1,0.14 -0.39,0.25 -0.56,0.22c-0.14,-0.03 -0.3,-0.28 -0.32,-0.45c-0.03,-0.56 -0.09,-1.1 -0.4,-1.59c-0.34,-0.55 -1.2,-0.88 -1.76,-0.65c-0.55,0.23 -0.82,0.84 -0.67,1.57c0.15,0.73 0.67,1.12 1.42,1.07c0.21,-0.01 0.44,-0.1 0.62,-0.05c0.21,0.07 0.49,0.22 0.53,0.39c0.04,0.18 -0.11,0.49 -0.28,0.61c-0.55,0.37 -1.17,0.31 -1.77,0.17c-1.04,-0.24 -1.78,-1.15 -1.9,-2.31c-0.11,-1.12 0.43,-2.14 1.41,-2.62c1.39,-0.69 3.22,0.12 3.82,1.65z" id="svg_70" stroke="#000" stroke-width="0.5"/>
     <path d="m36.14,14.76l-5.51,9.95c-0.54,0.97 0.96,1.02 1.38,0.26l5.51,-9.94c0.54,-0.98 -0.96,-1.03 -1.38,-0.27m-6.78,0.4l-5.72,9.95c-0.56,0.97 0.89,1.19 1.34,0.42l5.72,-9.95c0.55,-0.97 -0.9,-1.19 -1.34,-0.42" fill="#231F20" id="svg_71"/>
     <path d="m23.19,14.95c2.02,3.33 4.04,6.66 6.05,10c0.42,0.68 2.07,0.43 1.56,-0.41l-6.05,-10c-0.42,-0.68 -2.07,-0.43 -1.56,0.41m7.75,0.51l5.62,10.53c0.39,0.73 1.75,-0.29 1.35,-1.05l-5.63,-10.53c-0.39,-0.73 -1.75,0.3 -1.34,1.05" fill="#231F20" id="svg_72"/>
    </g>
   </g>
  </g>
 </g>
</svg>