<?xml version="1.0"?>
<svg width="72" height="72" xmlns="http://www.w3.org/2000/svg" xmlns:svg="http://www.w3.org/2000/svg">
 <g class="layer">
  <title>Layer 1</title>
  <g fill="none" fill-rule="evenodd" id="svg_1">
   <path d="m39.4,27.93l-22.77,-3.83a7.1,7.1 0 0 0 -6.08,1.87l-7.35,7.03a7.11,7.11 0 0 0 -1.7,7.76l9.42,23.75a7.1,7.1 0 0 0 8.06,4.34l24.84,-5.21a7.11,7.11 0 0 0 5.59,-6.04l1.53,-11.82a7.11,7.11 0 0 0 -0.88,-4.44l-5.67,-9.93a7.1,7.1 0 0 0 -4.99,-3.48" fill="#d6b588" id="svg_2" transform="matrix(0.692544 0.721376 -0.721376 0.692544 67.5388 -22.4581)"/>
   <path d="m41.88,42.54c0,-1.74 0,-3.47 -0.01,-5.21c0,-0.17 -0.01,-0.4 -0.11,-0.5c-0.4,-0.44 -2.38,0.03 -2.63,0.59c-0.57,1.25 -1.11,2.5 -1.72,3.73c-0.28,0.59 -0.77,1.01 -1.46,0.64c-0.64,-0.34 -0.55,-0.97 -0.34,-1.52c0.29,-0.78 0.72,-1.5 0.97,-2.28c0.75,-2.34 2.12,-3.77 4.67,-3.61c0.63,0.04 0.72,-0.31 0.7,-0.87a70.9,70.9 0 0 1 -0.06,-4.02c0.01,-0.61 -0.15,-0.76 -0.76,-0.78c-2.69,-0.09 -4.61,-0.46 -6.87,2.77c-0.12,0.17 -1.28,0.76 -0.85,1.61c0.17,0.57 0.22,1.19 0.09,1.82c-0.42,2.14 -1.39,4.01 -2.59,5.77c-0.29,0.41 -0.62,0.81 -1.08,1.01c-0.26,0.12 -0.6,0.34 -0.88,0.09c-0.34,-0.31 -0.15,-0.64 0.02,-0.98c0.71,-1.44 1.43,-2.88 2.11,-4.33c1.25,-2.65 0.66,-4.14 -2.03,-5.11a13.82,13.82 0 0 0 -1.93,-0.52c-1.04,-0.21 -2.08,-0.36 -3.11,-0.55c-0.57,-0.11 -1.18,-0.29 -1.11,-1.05c0.07,-0.85 0.74,-0.85 1.36,-0.82c1.52,0.07 2.96,0.56 4.43,0.87c1.23,0.26 2.46,1.37 3.49,1.05c1.11,-0.35 1.95,-1.68 2.87,-2.63c0.69,-0.69 1.46,-1.06 2.43,-1.1c1.23,-0.04 2.45,-0.24 3.68,-0.3c0.54,-0.03 0.74,-0.19 0.71,-0.77c-0.05,-0.79 -0.08,-1.6 0,-2.38c0.11,-1.01 -0.25,-1.19 -1.17,-1.15c-2.88,0.14 -5.76,0.18 -8.64,0.22c-0.82,0.01 -1.51,-0.37 -1.52,-1.3c-0.01,-0.92 0.66,-1.3 1.47,-1.41c0.2,-0.02 0.42,-0.04 0.63,-0.04c2.77,-0.1 5.55,-0.2 8.32,-0.28c0.51,-0.02 0.85,-0.02 0.8,-0.76c-0.24,-3.25 -0.22,-6.5 -0.69,-9.74c-0.36,-2.47 -1.7,-4.02 -3.66,-5.1c-1.52,-0.83 -3.14,-0.88 -4.54,0.37c-1.29,1.14 -2.1,2.56 -2.23,4.4c-0.06,0.88 0.19,1.25 0.96,1.6c2.03,0.93 3.52,2.47 4.36,4.63c0.22,0.57 0.18,1.1 -0.37,1.41c-0.51,0.3 -0.95,0.05 -1.3,-0.38a4.32,4.32 0 0 1 -0.3,-0.44c-1.36,-2.28 -3.45,-3.49 -5.88,-4.03c-3.87,-0.87 -7.23,2.33 -6.66,6.24c0.09,0.66 0.24,1.11 1.08,1.05c1.1,-0.08 2.16,0.27 3.14,0.78c0.67,0.34 1.25,0.86 0.96,1.71c-0.31,0.9 -1.09,0.88 -1.86,0.67c-0.68,-0.18 -1.34,-0.46 -2.03,-0.55c-3.2,-0.41 -6.83,2.09 -7.56,5.15c-0.84,3.54 1.33,7.95 4.57,9.17c2.31,0.87 4.67,0.94 6.99,-0.01c0.52,-0.21 0.99,-0.28 1.31,0.24c0.31,0.51 0.09,0.97 -0.26,1.37c-0.37,0.42 -0.84,0.67 -1.35,0.81c-0.72,0.19 -1.44,0.35 -2.16,0.47c-0.34,0.05 -0.58,0.11 -0.74,0.47c-0.38,0.86 -0.89,1.66 -1.17,2.55c-0.92,2.9 -0.3,5.05 2.35,6.35c2.17,1.07 4.34,1.39 6.53,0.01c0.64,-0.41 1.39,-0.51 1.79,0.38c0.37,0.83 -0.18,1.28 -0.79,1.63c-0.43,0.25 -0.87,0.48 -1.32,0.67c-0.57,0.23 -0.71,0.65 -0.6,1.21c0.39,1.86 1.99,3.25 3.87,3.43c2.43,0.24 4.47,-0.66 6.31,-2.18c0.74,-0.61 1.09,-1.4 1.23,-2.42c0.35,-2.61 0.3,-5.21 0.14,-7.82z" fill="#FFF" id="svg_3"/>
   <path d="m59.4,25.77c0.75,0.01 1.2,-0.25 1.62,-0.9c0.96,-1.5 2.35,-2.47 4.2,-2.66c0.55,-0.06 1.16,-0.03 1.34,0.61c0.18,0.66 -0.36,0.92 -0.89,1.12c-0.74,0.28 -1.44,0.63 -2.07,1.12c-1.01,0.78 -1.31,1.75 -0.91,2.91c0.44,1.21 1.16,1.69 2.54,1.69c0.59,0.01 1.15,-0.06 1.69,-0.28c1.6,-0.63 2.15,-2.18 1.26,-3.64c-0.45,-0.74 -0.89,-1.47 0.07,-2.11c0.61,-0.42 1.49,0.06 2.06,1.05c1.85,3.22 -0.19,6.92 -4.04,7.32c-3.08,0.32 -4.61,-0.56 -5.78,-3.41c-0.18,-0.43 -0.41,-0.48 -0.8,-0.47c-5.19,0.16 -10.37,0.32 -15.56,0.47c-0.4,0.01 -0.71,0.02 -0.69,0.55c0.04,1.48 0.06,2.97 0.06,4.45c0,0.59 0.39,0.5 0.73,0.46c1.59,-0.17 3.17,-0.03 4.76,-0.05c1.01,-0.01 1.82,0.28 2.46,1.06c1.42,1.75 3.02,3.33 4.63,4.9c0.42,0.42 0.76,0.65 1.35,0.27c0.55,-0.36 1.21,-0.44 1.87,-0.41c0.48,0.03 0.88,0.18 1,0.66c0.12,0.5 -0.23,0.81 -0.64,0.98c-0.8,0.32 -1.59,0.65 -2.28,1.18c-1.08,0.82 -1.38,1.79 -0.94,2.99c0.45,1.22 1.13,1.66 2.56,1.66c2.92,-0.02 4.04,-1.83 2.66,-4.32c-0.32,-0.59 -0.41,-1.16 0.17,-1.62c0.6,-0.49 1.14,-0.21 1.63,0.23c1.2,1.1 1.61,3.53 0.87,5.16c-1.43,3.13 -6.66,3.99 -9.02,1.47c-1.51,-1.61 -1.81,-3.66 -0.71,-5.54c0.3,-0.52 0.21,-0.79 -0.12,-1.18c-1.45,-1.68 -3.05,-3.21 -4.67,-4.72c-0.32,-0.29 -0.64,-0.42 -1.06,-0.41c-1.55,0.04 -3.1,0.09 -4.65,0.07c-0.62,0 -0.71,0.28 -0.68,0.78c0.16,2.68 0.05,5.37 0.07,8.06c0.01,1.51 -0.22,3.02 -0.01,4.54c0.17,1.21 -0.33,2.36 -1.14,3.23c-2.62,2.8 -5.79,4.42 -9.78,3.84c-2.67,-0.38 -5.11,-3.18 -5.1,-5.82c0,-0.67 -0.18,-0.79 -0.82,-0.83c-1.33,-0.07 -2.64,-0.35 -3.86,-0.9c-3.9,-1.75 -5.31,-5.27 -3.68,-9.14c0.31,-0.75 1.12,-1.61 0.93,-2.15c-0.22,-0.59 -1.46,-0.42 -2.23,-0.68c-3.44,-1.15 -6.68,-5.39 -6.79,-8.7c-0.17,-5.12 3.2,-8.39 6.85,-9.6c0.56,-0.19 0.97,-0.24 0.8,-1.08c-1.08,-5.09 3.45,-9.32 8.5,-8.67c0.74,0.1 0.79,-0.08 0.76,-0.73c-0.17,-3.38 1.96,-5.55 4.6,-7c2.19,-1.2 4.51,-0.39 6.58,1.01c3.17,2.14 4.09,5.17 4.06,8.74c-0.01,2.43 0.27,4.87 0.41,7.3c0.02,0.42 0.16,0.68 0.64,0.62a0.54,0.54 0 0 1 0.11,0c3.68,0.19 3.68,0.18 5.78,-2.79c0.8,-1.14 1.58,-2.29 2.42,-3.39c0.35,-0.46 0.41,-0.78 0.04,-1.29c-0.87,-1.18 -1.3,-2.51 -1.05,-4c0.14,-0.79 0.46,-1.51 1.41,-1.44c0.93,0.07 1.06,0.81 0.99,1.59c-0.05,0.64 0.03,1.26 0.32,1.85c0.61,1.25 1.48,1.85 2.56,1.73c1.16,-0.14 2.33,-1.05 2.57,-2.01c0.24,-0.97 -0.44,-2.66 -1.3,-3.18c-0.75,-0.44 -1.55,-0.74 -2.46,-0.65c-0.58,0.06 -1.21,0.09 -1.33,-0.7c-0.12,-0.75 0.37,-1.1 1.01,-1.27c1.96,-0.53 3.55,0.27 4.95,1.45c1.46,1.24 2,4.18 1.21,5.8c-0.96,1.93 -3.42,3.25 -5.57,2.84c-0.81,-0.15 -1.24,0.06 -1.68,0.69c-1.45,2.07 -3.01,4.06 -4.25,6.26c-0.53,0.93 -1.37,1.21 -2.34,1.25c-1.04,0.03 -2.09,0.05 -3.13,0c-0.6,-0.02 -0.73,0.18 -0.69,0.73c0.07,0.81 0.12,1.63 0.04,2.44c-0.07,0.72 0.07,0.95 0.87,0.92c2.45,-0.06 12.26,-0.34 14.71,-0.31zm-17.53,17.01c0,-1.71 0,-3.41 0,-5.11c0,-0.17 -0.01,-0.39 -0.12,-0.49c-0.41,-0.43 -2.47,0.03 -2.73,0.58c-0.59,1.22 -1.15,2.45 -1.78,3.65c-0.3,0.58 -0.8,1 -1.51,0.64c-0.67,-0.34 -0.58,-0.95 -0.36,-1.5c0.3,-0.76 0.75,-1.46 1.01,-2.23c0.78,-2.3 2.2,-3.7 4.84,-3.54c0.66,0.04 0.75,-0.31 0.73,-0.86c-0.06,-1.32 -0.08,-2.63 -0.06,-3.94c0.01,-0.6 -0.16,-0.74 -0.79,-0.76c-2.79,-0.09 -4.78,-0.45 -7.13,2.71c-0.12,0.17 -1.32,0.74 -0.88,1.58a3.52,3.52 0 0 1 0.1,1.79c-0.44,2.1 -1.45,3.93 -2.69,5.65c-0.3,0.41 -0.65,0.8 -1.12,1c-0.27,0.11 -0.62,0.33 -0.92,0.08c-0.35,-0.29 -0.15,-0.63 0.02,-0.96c0.74,-1.41 1.48,-2.82 2.2,-4.25c1.3,-2.6 0.68,-4.05 -2.11,-5.01a14.99,14.99 0 0 0 -2.01,-0.51c-1.07,-0.2 -2.15,-0.35 -3.22,-0.54c-0.59,-0.1 -1.22,-0.28 -1.15,-1.03c0.07,-0.83 0.77,-0.82 1.41,-0.8c1.57,0.07 3.07,0.55 4.6,0.85c1.27,0.26 2.54,1.35 3.61,1.03c1.16,-0.34 2.03,-1.65 2.99,-2.57c0.71,-0.69 1.5,-1.05 2.52,-1.08c1.27,-0.04 2.54,-0.24 3.81,-0.3c0.55,-0.03 0.77,-0.19 0.73,-0.75c-0.04,-0.78 -0.08,-1.57 0.01,-2.34c0.11,-0.99 -0.27,-1.17 -1.22,-1.12c-2.98,0.13 -5.97,0.17 -8.96,0.21c-0.85,0.01 -1.57,-0.36 -1.57,-1.28c-0.01,-0.89 0.68,-1.27 1.52,-1.37c0.21,-0.03 0.43,-0.04 0.65,-0.05c2.88,-0.09 5.76,-0.19 8.63,-0.28c0.53,-0.01 0.89,-0.01 0.83,-0.74c-0.25,-3.18 -0.23,-6.38 -0.72,-9.55c-0.37,-2.43 -1.76,-3.95 -3.79,-5c-1.58,-0.82 -3.26,-0.86 -4.71,0.36c-1.34,1.12 -2.18,2.52 -2.31,4.31c-0.07,0.87 0.19,1.24 0.99,1.58c2.11,0.91 3.65,2.42 4.53,4.54c0.23,0.55 0.18,1.08 -0.39,1.38c-0.53,0.29 -0.99,0.05 -1.35,-0.37a4.23,4.23 0 0 1 -0.31,-0.44c-1.41,-2.23 -3.58,-3.41 -6.1,-3.95c-4.02,-0.85 -7.49,2.28 -6.9,6.13c0.09,0.64 0.25,1.08 1.12,1.02c1.14,-0.08 2.24,0.27 3.26,0.77c0.68,0.34 1.29,0.85 0.99,1.67c-0.32,0.89 -1.13,0.87 -1.93,0.66c-0.7,-0.18 -1.39,-0.45 -2.1,-0.53c-3.33,-0.41 -7.09,2.04 -7.84,5.04c-0.87,3.47 1.38,7.8 4.73,9c2.4,0.85 4.84,0.92 7.26,-0.02c0.53,-0.2 1.01,-0.27 1.35,0.24c0.33,0.5 0.1,0.96 -0.27,1.35c-0.38,0.41 -0.87,0.65 -1.4,0.79c-0.74,0.18 -1.49,0.34 -2.24,0.46c-0.35,0.05 -0.6,0.11 -0.77,0.46c-0.39,0.84 -0.92,1.63 -1.21,2.5c-0.95,2.85 -0.31,4.96 2.44,6.24c2.24,1.04 4.49,1.36 6.77,0c0.66,-0.4 1.44,-0.5 1.86,0.38c0.38,0.8 -0.19,1.25 -0.83,1.6c-0.44,0.24 -0.9,0.46 -1.37,0.65c-0.58,0.23 -0.73,0.64 -0.61,1.19c0.4,1.82 2.06,3.18 4.01,3.36c2.52,0.24 4.64,-0.64 6.55,-2.13c0.76,-0.6 1.12,-1.38 1.27,-2.38c0.36,-2.56 0.31,-5.11 0.14,-7.67z" fill="#060606" fill-rule="nonzero" id="svg_4" stroke="#000"/>
  </g>
 </g>
</svg>