<?xml version="1.0"?>
<svg width="72" height="72" xmlns="http://www.w3.org/2000/svg" xmlns:svg="http://www.w3.org/2000/svg">
 <g class="layer">
  <title>Layer 1</title>
  <g fill="none" fill-rule="evenodd" id="svg_1" transform="matrix(1 0 0 1 0 -5)">
   <path d="m30.74,15.51l-19.7,12.02c-10.84,6.62 -10.69,22.3 0.28,28.72l21.21,12.4c11.66,6.82 26.27,-2.06 25.44,-15.47l-1.52,-24.43c-0.78,-12.63 -14.85,-19.87 -25.71,-13.24" fill="#d6b588" id="svg_2" transform="matrix(1 0 0 1 3 3)"/>
   <rect fill="#FFF" height="41" id="svg_3" rx="10" width="40" x="20.5" y="14"/>
   <circle cx="14" cy="33" fill="#FFF" id="svg_4" r="2"/>
   <path d="m61.67,21.84c0.38,-0.48 0.58,-0.76 0.81,-1.03c0.62,-0.69 0.98,-1.26 0.3,-2.26c-0.81,-1.17 -0.28,-2.84 0.99,-4.15c1.01,-1.04 2.48,-1.42 3.62,-0.95c0.45,0.18 0.91,0.4 0.81,0.97c-0.1,0.58 -0.64,0.51 -1.05,0.49c-1.07,-0.05 -1.89,0.37 -2.45,1.26c-0.39,0.61 -0.31,1.25 0.15,1.79c0.57,0.65 1.35,0.65 2.09,0.42c0.58,-0.19 0.92,-0.64 0.83,-1.33c-0.08,-0.69 0,-1.36 0.89,-1.41c0.87,-0.05 1.16,0.61 1.3,1.31c0.38,2 -1.8,4.1 -4.03,3.77c-0.81,-0.13 -1.15,0.19 -1.61,0.69c-1.84,1.97 -2.55,4.16 -2.49,6.95c0.1,3.81 0.22,16.67 0.13,18.65c-0.2,4.92 -4.73,8.27 -9.7,8.57c-6.65,0.4 -13.29,0.15 -19.94,0.23c-1.54,0.02 -3.07,0.33 -4.62,0.11c-4.4,-0.6 -9.41,-4.81 -9.17,-11.13c0.09,-2.29 -0.04,-4.58 0.07,-6.86c0.06,-1.28 -1.08,-1.26 -1.64,-1.85c-0.45,-0.46 -0.76,0 -1.11,0.19c-1.05,0.59 -2.15,0.78 -3.31,0.35c-1.7,-0.62 -2.79,-2.24 -2.49,-3.68c0.44,-2.12 2.21,-3.68 4.08,-3.59c0.24,0.01 0.49,0.06 0.73,0.15c0.47,0.17 1.02,0.36 0.92,1c-0.1,0.64 -0.69,0.51 -1.13,0.5c-1.03,-0.02 -1.81,0.4 -2.35,1.24c-0.4,0.61 -0.32,1.25 0.13,1.79c0.55,0.67 1.34,0.67 2.08,0.44c0.58,-0.18 0.93,-0.62 0.85,-1.31c-0.08,-0.68 -0.02,-1.37 0.87,-1.43c0.93,-0.06 1.15,0.66 1.35,1.39c0.13,0.47 -0.34,1.09 0.36,1.43c0.45,0.22 0.8,0.4 0.8,-0.36c-0.01,-3.11 0.38,-6.21 0.26,-9.32c-0.22,-5.21 2.54,-9.36 7.31,-11.07c0.85,-0.31 1.73,-0.43 2.63,-0.5c4.56,-0.34 9.12,-0.16 13.68,-0.26c1.83,-0.04 3.67,-0.03 5.5,-0.04c0.28,0 0.58,0.01 0.86,0.05c0.66,0.11 1.21,0.39 1.13,1.16c-0.07,0.75 -0.66,1 -1.32,0.93c-1.66,-0.16 -3.31,0.03 -4.96,0.04c-4.38,0.02 -8.77,0.05 -13.15,0.04c-5.6,-0.02 -9.23,3.28 -9.54,8.84c-0.21,3.71 -0.23,7.43 -0.38,11.14c-0.03,0.72 0.23,1.09 0.84,1.41a93.63,93.63 0 0 1 4.4,2.48c0.44,0.26 0.66,0.19 1,-0.12c0.99,-0.89 2.12,-1.35 3.45,-0.87c0.35,0.12 0.5,0 0.68,-0.29c1.76,-2.82 3.46,-5.68 5.42,-8.37c0.21,-0.29 0.1,-0.53 0.04,-0.8c-0.43,-2.24 1.76,-4.76 4.04,-4.66c0.25,0.01 0.5,0.06 0.73,0.14c0.48,0.17 1.03,0.35 0.94,0.99c-0.08,0.65 -0.67,0.54 -1.11,0.52c-0.94,-0.02 -1.68,0.33 -2.25,1.05c-0.48,0.61 -0.5,1.27 -0.07,1.89c0.53,0.76 1.36,0.77 2.14,0.54c0.64,-0.18 0.96,-0.68 0.86,-1.41c-0.08,-0.6 0.03,-1.18 0.76,-1.33c0.74,-0.14 1.2,0.33 1.33,0.96c0.13,0.63 0.53,0.93 0.97,1.31c1.66,1.47 3.3,2.97 4.92,4.5c0.42,0.4 0.75,0.58 1.27,0.2c0.39,-0.42 0.92,-0.41 1.15,-0.36c1.36,0.3 1.44,-0.61 2.04,-1.48a61.73,61.73 0 0 1 4.31,-5.62c0.58,-0.66 0.75,-1.35 0.74,-2.23c-0.05,-3.19 -1.18,-5.77 -3.96,-7.52c-0.73,-0.47 -1.5,-0.85 -2.35,-1.04c-0.63,-0.14 -1.34,-0.22 -1.17,-1.03c0.17,-0.78 0.93,-0.82 1.59,-0.75c1.9,0.19 3.42,1.11 4.81,2.36c1.8,1.62 2.85,3.63 3.39,6.17zm-1.8,6.27l-0.44,-0.11c-1.39,1.81 -2.81,3.59 -4.13,5.45c-0.58,0.82 -1.14,1.37 -2.24,1.28c-0.89,-0.07 -1.52,0.5 -1.98,1.25c-0.39,0.64 -0.31,1.25 0.16,1.78c0.56,0.64 1.35,0.64 2.08,0.4c0.58,-0.19 0.9,-0.65 0.81,-1.34c-0.09,-0.64 0,-1.29 0.8,-1.39c0.86,-0.11 1.19,0.52 1.34,1.23c0.08,0.37 0.08,0.79 0.01,1.17c-0.38,1.83 -2.71,3.11 -4.66,2.59c-2.07,-0.56 -3.24,-2.49 -2.59,-4.41c0.19,-0.55 0.11,-0.83 -0.28,-1.2a199.25,199.25 0 0 1 -4.54,-4.41c-0.37,-0.37 -0.53,-0.35 -0.92,-0.01c-1.17,1.06 -2.55,1.5 -4.04,0.82c-0.7,-0.31 -0.9,-0.03 -1.22,0.47a385.4,385.4 0 0 1 -4.52,7.04c-0.92,1.38 -1.34,1.49 -2.89,1.03c-0.95,-0.28 -1.69,0.14 -2.25,0.86c-0.44,0.56 -0.62,1.23 -0.21,1.89c0.43,0.71 1.14,0.81 1.88,0.69c0.9,-0.14 1.26,-0.68 1.15,-1.59c-0.07,-0.59 0.11,-1.1 0.77,-1.22c0.62,-0.11 1.01,0.22 1.24,0.78c0.36,0.82 0.27,1.61 -0.14,2.37c-0.76,1.4 -2.54,2.2 -4.11,1.88c-1.74,-0.36 -2.93,-1.65 -3.09,-3.37c-0.03,-0.29 0.01,-0.55 -0.28,-0.75c-1.4,-0.96 -2.8,-1.92 -4.42,-2.75c-0.18,2.53 -0.21,4.94 -0.06,7.36c0.25,3.89 3.04,6.76 6.05,7.85c0.76,0.27 1.03,0.25 1.03,-0.7c-0.02,-1.86 0.09,-3.72 0.19,-5.58c0.07,-1.19 3.27,-1.18 3.29,0.02c0.04,1.93 0.09,3.88 -0.2,5.8c-0.09,0.61 0.11,0.71 0.66,0.7c1.97,-0.04 3.93,-0.08 5.89,-0.03c0.8,0.02 0.89,-0.25 0.9,-0.96c0.05,-5.38 0.15,-10.76 0.26,-16.14c0.01,-0.82 0.08,-1.65 0.18,-2.46c0.09,-0.78 2.67,-0.96 2.82,-0.12c0.07,0.42 0.11,0.85 0.12,1.28c0.1,5.85 0.03,11.69 -0.2,17.54c-0.02,0.7 0.15,0.92 0.86,0.9c2.35,-0.05 4.71,-0.05 7.06,-0.03c0.71,0.01 0.82,-0.22 0.82,-0.93c-0.03,-3.52 0.04,-7.03 0.08,-10.54c0.01,-0.58 3.03,-0.9 3.03,0.65c0.01,3.37 0.01,6.73 0.01,10.23c2.37,-0.88 4.17,-2.35 5.3,-4.58c0.38,-0.75 0.76,-1.56 0.75,-2.43c-0.01,-1.68 -0.12,-3.36 -0.13,-5.04c-0.02,-4.41 0,-8.82 0,-13.22z" fill="#060606" fill-rule="nonzero" id="svg_5" stroke="#000"/>
  </g>
 </g>
</svg>