<?xml version="1.0"?>
<svg width="72" height="72" xmlns="http://www.w3.org/2000/svg" xmlns:svg="http://www.w3.org/2000/svg">
 <g class="layer">
  <title>Layer 1</title>
  <g fill="none" fill-rule="evenodd" id="svg_1">
   <path d="m53.16,50.99l-2.08,1.78c-2.77,2.44 -12.72,13.48 -26.15,14.11c-12.48,-0.01 -25.94,-15.74 -27.07,-16.96l-1.87,-2.01c-6.3,-6.88 -2.08,-18 7.21,-18.87l2.71,-0.26c3.68,-0.35 6.95,-2.45 8.74,-5.74l1.34,-2.4c4.55,-8.17 16.39,-7.51 20.07,1.08l1.08,2.51c1.43,3.41 4.46,5.86 8.1,6.64l2.68,0.5c9.16,1.92 12.24,13.47 5.24,19.61l0,0.01z" fill="#d6b588" id="svg_2" transform="rotate(-135 24.9936 40.879)"/>
   <path d="m10,4l53,0l0,40l-53,0l0,-40z" fill="#FFF" id="svg_3"/>
   <g fill-rule="nonzero" id="svg_4">
    <path d="m37.14,3.12c7.1,0.05 14.19,0.21 21.28,-0.1c1.46,-0.06 2.93,0.04 4.4,0.13c1.37,0.08 2.3,1.08 2.31,2.47c0.02,1.99 0.04,3.98 -0.02,5.96c-0.03,0.76 0.12,1.02 0.92,0.97c1.42,-0.08 2.85,-0.04 4.27,-0.04c0.29,0 0.6,-0.01 0.84,0.12c0.53,0.27 0.93,0.7 0.85,1.37c-0.07,0.63 -0.6,0.75 -1.07,0.77c-1.63,0.06 -3.26,0.11 -4.89,0.09c-0.77,-0.01 -1.02,0.2 -1.05,1.03c-0.34,9.23 0.1,18.46 -0.03,27.69c-0.02,0.94 -0.28,1.67 -1.43,1.87c-2.55,0.42 -5.09,0.23 -7.64,0.21c-1.14,-0.01 -2.28,-0.01 -3.42,-0.09c-0.73,-0.05 -1,0.14 -1,0.94c0,1.73 -0.12,3.47 -0.16,5.21c-0.01,0.65 -0.08,1.24 -0.89,1.28c-0.79,0.03 -0.9,-0.62 -0.94,-1.19c-0.12,-1.65 -0.25,-3.3 -0.23,-4.96c0.01,-1.02 -0.29,-1.3 -1.31,-1.29c-8.88,0.12 -17.77,0.5 -26.66,0.47c-3.54,-0.01 -7.09,-0.1 -10.63,-0.22c-0.8,-0.03 -1.09,-0.29 -1.24,-1.1a18.47,18.47 0 0 1 -0.31,-3.32c-0.02,-9.56 -0.22,-19.12 0.06,-28.69c0.04,-1.32 0.13,-2.64 0.22,-3.96c0.05,-0.83 0.31,-1.6 1.3,-1.54c0.91,0.05 0.93,0.83 0.92,1.55c-0.1,4.38 -0.18,8.77 -0.3,13.15c-0.02,0.77 0.05,0.98 0.96,0.95c4.77,-0.18 9.54,-0.2 14.31,-0.29c2.81,-0.05 5.62,-0.16 8.43,-0.19c0.75,0 0.98,-0.21 0.95,-0.98c-0.07,-2.02 -0.06,-4.05 -0.05,-6.08c0.01,-0.6 -0.1,-0.91 -0.79,-0.88c-3.02,0.12 -6.03,0.21 -9.05,0.27c-0.54,0.02 -0.72,0.23 -0.69,0.74c0.05,0.82 -0.04,1.62 -0.01,2.47a10.97,10.97 0 0 1 -0.27,3c-0.1,0.48 -0.51,1.09 -1.2,0.96c-0.56,-0.11 -0.72,-0.61 -0.72,-1.12c-0.03,-1.65 -0.07,-3.31 -0.01,-4.96c0.03,-0.8 -0.14,-1.08 -0.99,-1.04c-1.62,0.06 -3.26,-0.02 -4.88,-0.04c-0.59,0 -1.16,-0.04 -1.22,-0.81c-0.06,-0.83 0.52,-0.82 1.12,-0.93c1.58,-0.26 3.16,-0.3 4.75,-0.3c1.01,0 1.45,-0.26 1.39,-1.4c-0.08,-1.61 -0.01,-3.23 0.09,-4.84c0.04,-0.77 -0.21,-0.91 -0.89,-0.88c-3.99,0.17 -7.98,0.03 -11.97,-0.24c-0.76,-0.05 -1.42,-0.05 -1.43,-1.02c0,-0.95 0.73,-0.93 1.39,-0.94c8.1,-0.09 16.21,-0.44 24.31,-0.23c0.77,0.03 1.55,0 2.32,0zm-25.79,32.27c0.08,1.59 -0.13,4.4 -0.21,7.21c-0.02,0.81 0.21,1.03 1.02,1.02c3.74,-0.07 7.5,-0.06 11.24,-0.1c8.19,-0.09 16.38,-0.2 24.57,-0.32c0.44,-0.01 1.12,0.33 1.12,-0.64c-0.01,-2.07 0.02,-4.14 0.06,-6.21c0.01,-0.57 -0.16,-0.8 -0.76,-0.79c-3.02,0.02 -6.03,0.02 -9.05,-0.02c-0.72,-0.01 -0.88,0.28 -0.87,0.94c0.03,1.04 -0.02,2.07 -0.08,3.1c-0.04,0.68 -0.32,1.25 -1.06,1.31c-0.78,0.07 -1.08,-0.55 -1.17,-1.18c-0.13,-0.98 -0.2,-1.98 -0.16,-2.96c0.05,-0.91 -0.28,-1.08 -1.11,-1.06c-2.07,0.06 -4.15,0.25 -6.22,-0.04c-0.63,-0.09 -1.47,-0.17 -1.37,-1.06c0.08,-0.8 0.87,-0.7 1.48,-0.73c2.11,-0.11 4.23,-0.22 6.34,-0.33c0.45,-0.02 0.88,0.02 0.87,-0.69c-0.03,-2.44 -0.02,-4.89 0.01,-7.33c0.01,-0.66 -0.31,-0.72 -0.83,-0.71c-1.95,0.04 -3.91,0.04 -5.86,0.06c-5.79,0.05 -11.57,0.27 -17.35,-0.05c-0.74,-0.04 -0.68,0.31 -0.68,0.78c0.02,2.86 0.04,5.71 0.08,9.8l-0.01,0zm51.32,-11.21l0.04,0c-0.02,-2.77 -0.08,-5.54 -0.05,-8.31c0.01,-0.79 -0.2,-0.97 -0.94,-0.98c-3.14,-0.07 -6.28,-0.16 -9.41,-0.32c-0.79,-0.04 -0.99,0.21 -0.98,0.95a196.26,196.26 0 0 1 -0.03,6.08c-0.02,0.62 0.21,0.8 0.78,0.76a25.05,25.05 0 0 1 2.08,-0.02c0.77,0.02 1.56,0.17 1.59,1.15c0.03,1 -0.75,1.15 -1.53,1.17c-0.61,0.02 -1.23,0.08 -1.84,0.01c-0.9,-0.1 -1.2,0.18 -1.14,1.15c0.13,2.19 0.17,4.39 0.18,6.58c0,0.73 0.17,0.98 0.93,1.02c3.14,0.16 6.28,-0.01 9.42,0.1c0.83,0.03 1,-0.23 0.98,-1.02c-0.06,-2.77 -0.06,-5.54 -0.08,-8.32zm-18.95,9.19l0,0.02c1.46,-0.01 2.93,-0.06 4.39,-0.02c0.73,0.02 0.99,-0.15 0.96,-0.95c-0.11,-2.31 -0.16,-4.62 -0.18,-6.94c-0.01,-0.65 -0.22,-0.82 -0.84,-0.84c-2.89,-0.12 -5.78,0.05 -8.66,0.1c-0.47,0.01 -0.74,0.06 -0.75,0.66c-0.01,2.39 -0.07,4.79 -0.14,7.18c-0.02,0.65 0.18,0.86 0.83,0.84c1.46,-0.05 2.93,-0.04 4.39,-0.05zm18.39,10.04c0.68,0.02 0.83,-0.21 0.81,-0.85a195.43,195.43 0 0 1 -0.16,-6.06c-0.01,-0.61 -0.22,-0.78 -0.78,-0.78c-3.25,-0.03 -6.51,-0.07 -9.76,-0.14c-0.59,-0.01 -0.76,0.18 -0.75,0.77c0.03,1.99 0.03,3.97 -0.01,5.95c-0.01,0.69 0.18,0.95 0.89,0.92c1.63,-0.06 8.14,0.15 9.76,0.19zm-18.23,-21.18l0,0.02c1.38,-0.02 2.76,-0.05 4.14,-0.03c0.59,0.02 0.88,-0.06 0.88,-0.77c-0.01,-2.07 0.03,-4.14 0.11,-6.2c0.02,-0.63 -0.21,-0.76 -0.77,-0.75c-2.97,0.01 -5.94,-0.01 -8.91,-0.04c-0.54,-0.01 -0.8,0.1 -0.79,0.74c0.05,2.1 0.07,4.21 0.05,6.32c0,0.6 0.18,0.78 0.77,0.76c1.5,-0.05 3.01,-0.04 4.52,-0.05zm13.29,-16.58l0,0.04c-1.59,0.01 -3.18,0.05 -4.77,0.02c-0.62,0 -0.86,0.17 -0.86,0.83c0.02,1.62 -0.01,3.24 -0.05,4.85c-0.02,0.55 0.08,0.81 0.71,0.83c3.22,0.09 6.44,0.21 9.65,0.35c0.59,0.02 0.91,-0.06 0.89,-0.78a112,112 0 0 1 0.03,-5.34c0.01,-0.66 -0.21,-0.86 -0.83,-0.84c-1.59,0.04 -3.18,0.03 -4.77,0.04zm-26.29,-0.01c0,-0.06 -2.86,-0.1 -4.28,-0.14c-0.69,-0.02 -0.92,0.21 -0.92,0.91a81.38,81.38 0 0 1 -0.14,4.95c-0.06,0.86 0.15,1.14 1.04,1.09c2.85,-0.16 5.69,-0.25 8.54,-0.33c0.57,-0.02 0.77,-0.17 0.78,-0.77c0.01,-1.61 0.06,-3.23 0.18,-4.83c0.05,-0.7 -0.09,-0.96 -0.81,-0.93c-1.47,0.06 -2.93,0.04 -4.39,0.05zm12.91,6.4l0,0.09c1.51,-0.01 3.01,-0.03 4.51,-0.03c0.46,0.01 0.77,-0.03 0.77,-0.64c0.01,-1.69 0.06,-3.38 0.12,-5.07c0.02,-0.55 -0.2,-0.71 -0.71,-0.71a969.38,969.38 0 0 1 -9.14,-0.08c-0.47,-0.01 -0.64,0.15 -0.65,0.63c-0.03,1.69 -0.07,3.38 -0.16,5.07c-0.04,0.72 0.3,0.79 0.87,0.78c1.47,-0.04 2.93,-0.04 4.39,-0.04z" fill="#070707" id="svg_5"/>
    <path d="m43.43,10.91c-1.51,0.01 -3.02,0 -4.52,0.04c-0.59,0.01 -0.95,-0.05 -0.91,-0.71c0.1,-1.55 0.14,-3.11 0.17,-4.66c0.01,-0.44 0.19,-0.59 0.67,-0.58c3.14,0.04 6.28,0.06 9.42,0.07c0.53,0.01 0.76,0.15 0.74,0.66a123.89,123.89 0 0 0 -0.12,4.65c-0.01,0.56 -0.32,0.59 -0.8,0.59c-1.55,-0.01 -3.1,0.02 -4.65,0.03a0.45,0.45 0 0 0 0,-0.09z" fill="#FEFEFE" id="svg_6"/>
   </g>
  </g>
 </g>
</svg>