<?xml version="1.0"?>
<svg width="72" height="72" xmlns="http://www.w3.org/2000/svg" xmlns:svg="http://www.w3.org/2000/svg">
 <g class="layer">
  <title>Layer 1</title>
  <g fill="none" fill-rule="evenodd" id="svg_1">
   <path d="m15.2,9.6c-11.44,-6.12 -22.93,8.44 -14.08,17.82l28.47,30.16c4.49,4.76 12.18,4.74 16.78,-0.04l9.48,-9.86c5.23,-5.45 3.89,-14.25 -2.71,-17.78l-37.94,-20.3z" fill="#d6b588" id="svg_2" transform="matrix(-0.292372 -0.956305 0.956305 -0.292372 4.73026 73.0413)"/>
   <path d="m0.79,25.65l39.37,0l0.48,5.56l1.65,-0.44l8.76,5.11l-4.37,8.42l-2.92,4.16l-7.58,-4.56l-35.38,-1.02l-0.01,-17.23z" fill="#FFF" id="svg_3"/>
   <path d="m15.17,37c-1.41,-0.39 -2.38,-1.49 -2.47,-3.33c-0.12,-2 0.34,-3.8 2.06,-5.03c1.11,-0.83 2.45,-0.6 3.22,0.45c0.08,0.12 0.18,0.18 0.28,0.28c1.95,1.51 2.07,5.04 0.28,7.07c-0.99,1.1 -2.07,1.09 -3.37,0.56zm2.31,-2.86c0.47,-1.42 0.61,-2.45 0.23,-3.44c-0.28,-0.81 -0.86,-0.91 -1.53,-0.38c-1.25,0.97 -1.83,3.28 -1.21,4.71c0.25,0.57 0.69,0.82 1.17,0.45c0.58,-0.44 1.07,-1.04 1.35,-1.34l-0.01,0z" fill="#000" fill-rule="nonzero" id="svg_4"/>
   <path d="m14.88,35.72c2.06,-0.12 3.63,0.51 4.88,1.96c0.78,0.9 1.42,1.89 1.72,3.07c0.08,0.32 0.05,0.65 0.1,0.98c0.02,0.28 0.02,0.57 0.08,0.86c0.08,0.45 -0.08,0.67 -0.52,0.67c-0.91,0.01 -1.08,-0.12 -1.41,-1c-0.61,-1.55 -1.66,-2.64 -3.2,-3.25c-1.2,-0.51 -2.71,-0.13 -3.53,0.9c-0.54,0.7 -0.95,1.47 -1.08,2.34c-0.07,0.44 -0.15,0.72 -0.67,0.69c-0.52,-0.02 -0.63,-0.26 -0.66,-0.74c-0.12,-2.57 0.96,-4.55 3.03,-5.96c0.38,-0.3 0.93,-0.4 1.26,-0.52z" fill="#000" fill-rule="nonzero" id="svg_5"/>
   <path d="m35.11,43.54c-1.02,-2.24 -2.59,-4.02 -4.57,-5.47a490.5,490.5 0 0 0 -2.84,-2.06c-0.74,-0.53 -1.44,-1.09 -2.05,-1.76c-0.47,-0.52 -0.85,-1.09 -1.02,-1.78c-0.22,-0.94 0.19,-1.62 1.13,-1.8c0.78,-0.14 1.56,-0.14 2.33,0.06c0.57,0.15 1.15,0.32 1.72,0.53c1.52,0.55 3.05,1.11 4.55,1.7c1.2,0.47 2.36,1.05 3.44,1.76c0.81,0.52 1.62,1.03 2.53,1.36c0.5,0.46 1.16,0.59 1.75,0.89c0.32,0.16 0.65,0.29 0.96,0.48c0.33,0.2 0.48,0.49 0.36,0.64c-0.18,0.25 -0.46,0.27 -0.73,0.24a3.49,3.49 0 0 1 -0.62,-0.13a9.07,9.07 0 0 1 -0.68,-0.24c-1.56,-0.57 -3.01,-1.35 -4.43,-2.19a21.39,21.39 0 0 0 -3.33,-1.59a416.98,416.98 0 0 0 -4.82,-1.78a12.46,12.46 0 0 0 -1.38,-0.41c-0.56,-0.13 -1.03,-0.08 -1.56,0.1c0.18,0.65 0.28,0.84 0.72,1.3c0.56,0.6 1.21,1.09 1.89,1.54a210.24,210.24 0 0 1 2.69,1.8c2.1,1.44 3.8,3.22 4.98,5.49a10.49,10.49 0 0 0 2.25,2.92c1.66,1.53 3.56,2.54 5.9,2.56c0.54,0.01 1.07,0.08 1.62,0.12c0.24,0.02 0.48,0.05 0.69,0.16c0.33,0.19 0.42,0.57 0.16,0.84c-0.19,0.19 -0.41,0.33 -0.63,0.51c0.38,0.53 0.76,1.03 1.11,1.55c1.35,1.96 2.56,4 3.7,6.09c0.15,0.29 0.33,0.56 0.5,0.84l-0.79,0.92c-0.1,0.12 -0.04,0.31 -0.19,0.3c-0.45,-0.81 -1.09,-1.77 -1.53,-2.59c-0.08,-0.13 -1.47,-2.49 -1.79,-2.96c-0.28,-0.64 -0.66,-1.21 -1.11,-1.74c-0.4,-0.63 -0.81,-1.26 -1.2,-1.9c-0.15,-0.23 -0.35,-0.29 -0.61,-0.28c-2.35,0.08 -4.33,-0.85 -6.08,-2.34c-1.02,-0.86 -1.86,-1.88 -2.6,-2.98a16.32,16.32 0 0 0 -0.42,-0.7zm5.48,-17.63c-0.33,0.35 -0.73,0.37 -1.16,0.39c-4.26,0.08 -8.52,-0.1 -12.78,0.07a65.21,65.21 0 0 1 -3.75,0.02c-1.39,-0.03 -2.78,0.02 -4.16,0.03l-10.97,0.11c-0.32,0 -0.63,-0.02 -0.94,-0.03c-0.49,0 -0.93,-0.14 -1.34,-0.44c-0.22,-0.83 -0.07,-1.2 0.61,-1.42c0.52,-0.17 1.04,-0.15 1.56,-0.16c1.6,-0.01 3.19,-0.01 4.78,0c3.38,0.02 6.75,0.07 10.11,0.07c1.81,0 3.61,0 5.41,0.07c1.88,0.07 3.76,0.03 5.65,0.01c1.75,-0.02 3.5,-0.09 5.25,0.01c0.31,0.02 0.63,-0.02 0.94,-0.01c0.65,0.02 0.86,0.31 0.82,1.09c0,0.06 -0.02,0.12 -0.03,0.19z" fill="#191524" fill-rule="nonzero" id="svg_6" stroke="#000"/>
   <path d="m36.63,43.98c-0.3,0.35 -0.65,0.38 -1.04,0.39c-3.78,0.08 -7.56,-0.1 -11.33,0.07a51.35,51.35 0 0 1 -3.34,0.03c-1.23,-0.03 -2.46,0.01 -3.69,0.03l-9.73,0.1c-0.28,0 -0.56,-0.02 -0.84,-0.03c-0.42,0 -0.82,-0.13 -1.18,-0.44c-0.2,-0.83 -0.06,-1.19 0.54,-1.42c0.46,-0.16 0.92,-0.15 1.39,-0.15c1.41,-0.01 2.83,-0.01 4.24,-0.01c2.99,0.03 5.98,0.07 8.97,0.07c1.6,0 3.2,0 4.8,0.07c1.67,0.07 3.34,0.03 5.01,0.01c1.55,-0.02 3.11,-0.08 4.66,0.01c0.28,0.02 0.56,-0.01 0.83,-0.01c0.58,0.02 0.76,0.31 0.73,1.09c0,0.07 -0.02,0.13 -0.02,0.19zm-30.21,-15.98c0.26,0.12 0.28,0.27 0.29,0.42c0.06,1.54 -0.07,3.08 0.06,4.62c0.03,0.45 0.03,0.91 0.01,1.36c-0.02,0.5 0.02,1 0.03,1.5l0.08,3.96c0,0.12 -0.02,0.23 -0.03,0.34c0,0.18 -0.1,0.34 -0.33,0.49c-0.61,0.08 -0.88,0.02 -1.04,-0.22c-0.13,-0.19 -0.12,-0.38 -0.12,-0.57a74.5,74.5 0 0 1 0,-1.73c0.01,-1.21 0.05,-2.43 0.05,-3.65c0,-0.65 0,-1.3 0.05,-1.95c0.05,-0.68 0.02,-1.36 0.01,-2.04c-0.02,-0.64 -0.07,-1.27 0.01,-1.9c0.01,-0.11 -0.02,-0.23 -0.01,-0.34c0.01,-0.24 0.22,-0.31 0.8,-0.3c0.05,0 0.1,0.01 0.14,0.01zm33.95,-2.77c0.27,0.1 0.28,0.23 0.29,0.38c0.07,1.4 -0.07,2.8 0.06,4.19c0.03,0.42 0.03,0.83 0.01,1.24c-0.02,0.46 0.02,0.91 0.03,1.37l0.08,3.6c0,0.1 -0.02,0.21 -0.02,0.31c0,0.16 -0.11,0.31 -0.33,0.44c-0.62,0.07 -0.89,0.02 -1.05,-0.2c-0.13,-0.17 -0.11,-0.34 -0.12,-0.51a61.59,61.59 0 0 1 0,-1.58c0.02,-1.1 0.05,-2.21 0.05,-3.32c0,-0.59 0,-1.18 0.05,-1.77c0.05,-0.62 0.02,-1.24 0.01,-1.86c-0.01,-0.58 -0.06,-1.15 0.01,-1.73c0.01,-0.1 -0.02,-0.2 -0.01,-0.31c0.01,-0.21 0.23,-0.28 0.81,-0.27c0.05,0.01 0.09,0.01 0.13,0.01l0,0.01z" fill="#191524" fill-rule="nonzero" id="svg_7" stroke="#000"/>
   <path d="m55.59,39.03c0.16,0.21 0.32,0.42 0.5,0.62c0.19,0.23 0.39,0.45 0.63,0.63c0.04,0.02 0.32,0.28 0.83,0.8c0.57,0.6 1.06,1.2 1.66,1.69c7.05,7.35 3.34,5.64 3.2,6.2c-0.02,0.1 -3.71,-4.31 -3.78,-4.22c-0.23,-0.23 -0.46,-0.46 -0.69,-0.7c-3.34,-3.53 -6.83,-6.91 -10.51,-10.09a29.77,29.77 0 0 0 -2.34,-1.83c-1.35,-0.94 -2.85,-1.5 -4.45,-1.83c-0.1,-0.06 -0.22,-0.11 -0.31,-0.19c-0.38,-0.36 -0.38,-0.67 0.01,-1.07c0.06,-0.06 0.14,-0.11 0.2,-0.17c2.04,0.03 3.89,0.6 5.55,1.78c0.91,0.65 1.78,1.33 2.62,2.05c2.15,1.82 4.19,3.77 6.2,5.74c0.22,0.21 0.4,0.45 0.68,0.59z" fill="#191524" fill-rule="nonzero" id="svg_8" stroke="#000"/>
   <g fill="#191524" fill-rule="nonzero" id="svg_9" stroke="#000">
    <path d="m23.57,52.44c0.11,0.02 0.27,0.06 0.42,0.09c2.19,0.41 2.78,2.6 1.81,4.29c-0.26,0.46 -0.63,0.82 -1.06,1.13c-0.4,0.28 -0.78,0.56 -1.16,0.84c-0.58,0.44 -0.73,1.03 -0.59,1.71c0.05,0.23 0.16,0.45 0.19,0.69c0.03,0.23 0.03,0.49 -0.01,0.72c-0.07,0.34 -0.3,0.56 -0.65,0.62c-0.36,0.05 -0.63,-0.09 -0.83,-0.38c-0.23,-0.34 -0.3,-0.74 -0.38,-1.12c-0.35,-1.47 0.02,-2.69 1.28,-3.6c0.42,-0.3 0.86,-0.59 1.27,-0.9c0.36,-0.27 0.66,-0.59 0.76,-1.04c0.13,-0.59 -0.06,-1.03 -0.6,-1.28c-1.15,-0.55 -2.29,-0.35 -3.21,0.53c-0.44,0.43 -0.71,0.96 -1,1.48c-0.14,0.25 -0.33,0.48 -0.67,0.4c-0.23,-0.05 -0.39,-0.34 -0.38,-0.68c0.02,-0.4 0.1,-0.79 0.27,-1.16c0.81,-1.82 2.5,-2.71 4.54,-2.34zm-1.19,12.76c0.51,0.07 0.88,0.52 0.83,1a0.89,0.89 0 0 1 -1.01,0.8c-0.54,-0.06 -0.91,-0.56 -0.8,-1.12c0.08,-0.43 0.52,-0.73 0.98,-0.68z" id="svg_10"/>
   </g>
   <g fill="#191524" fill-rule="nonzero" id="svg_11" stroke="#000">
    <path d="m33.77,2.95c0.15,0.04 0.36,0.1 0.57,0.16c2.9,0.76 3.49,3.77 2.03,5.95c-0.4,0.59 -0.93,1.05 -1.54,1.42a54.42,54.42 0 0 0 -1.64,1.03c-0.83,0.53 -1.08,1.31 -0.95,2.24c0.05,0.32 0.16,0.63 0.19,0.95c0.02,0.32 -0.01,0.66 -0.09,0.96c-0.12,0.46 -0.46,0.73 -0.93,0.77c-0.48,0.05 -0.84,-0.17 -1.08,-0.58c-0.28,-0.47 -0.33,-1.03 -0.41,-1.55c-0.33,-2.01 0.29,-3.61 2.07,-4.71c0.59,-0.37 1.21,-0.72 1.8,-1.1c0.5,-0.33 0.93,-0.73 1.11,-1.33c0.24,-0.78 0.01,-1.39 -0.69,-1.78c-1.49,-0.85 -3.04,-0.68 -4.36,0.41c-0.64,0.53 -1.05,1.23 -1.5,1.9c-0.2,0.32 -0.48,0.61 -0.93,0.48c-0.31,-0.1 -0.5,-0.5 -0.45,-0.95c0.06,-0.54 0.21,-1.05 0.47,-1.54c1.27,-2.38 3.62,-3.41 6.33,-2.73z" id="svg_12" stroke-width="0.5"/>
    <path d="m30.98,20.03c0.67,0.13 1.13,0.78 1.01,1.42a1.2,1.2 0 0 1 -1.43,0.99c-0.72,-0.14 -1.17,-0.85 -0.97,-1.6c0.15,-0.56 0.77,-0.93 1.39,-0.81z" id="svg_13"/>
   </g>
   <g fill="#191524" fill-rule="nonzero" id="svg_14">
    <path d="m55.5,6.67c0.21,0.02 0.52,0.04 0.82,0.05c4.17,0.12 5.91,4.01 4.61,7.43c-0.34,0.92 -0.93,1.71 -1.64,2.4a75.72,75.72 0 0 0 -1.9,1.91c-0.95,0.98 -1.06,2.11 -0.59,3.33c0.17,0.43 0.42,0.8 0.56,1.24c0.12,0.42 0.19,0.89 0.18,1.33c-0.02,0.66 -0.39,1.13 -1.03,1.34c-0.63,0.21 -1.19,0.03 -1.64,-0.45c-0.53,-0.56 -0.77,-1.3 -1.04,-1.98c-1.07,-2.62 -0.74,-4.99 1.33,-7.04c0.69,-0.68 1.41,-1.35 2.09,-2.05c0.59,-0.6 1.04,-1.28 1.1,-2.15c0.08,-1.13 -0.42,-1.89 -1.49,-2.2c-2.29,-0.68 -4.34,0.03 -5.79,1.93c-0.69,0.91 -1.04,1.99 -1.43,3.04c-0.18,0.5 -0.47,0.98 -1.12,0.93c-0.45,-0.03 -0.83,-0.51 -0.9,-1.14a5.87,5.87 0 0 1 0.15,-2.23c0.98,-3.62 3.84,-5.76 7.73,-5.69z" id="svg_15"/>
    <path d="m57.06,30.71c0.95,-0.03 1.78,0.7 1.82,1.61c0.05,0.96 -0.66,1.73 -1.63,1.78c-1.02,0.04 -1.85,-0.79 -1.82,-1.86c0.03,-0.81 0.75,-1.5 1.63,-1.53z" id="svg_16" stroke="#000"/>
   </g>
  </g>
 </g>
</svg>