<?xml version="1.0"?>
<svg width="72" height="72" xmlns="http://www.w3.org/2000/svg" xmlns:svg="http://www.w3.org/2000/svg" version="1.1">
 <title>Programming@1x</title>
 <g class="layer">
  <title>Layer 1</title>
  <g fill="none" fill-rule="evenodd" id="Programming">
   <path d="m56.85,18.04l-26.41,-4.43c-2.57,-0.43 -5.18,0.38 -7.06,2.17l-8.53,8.12c-2.43,2.31 -3.21,5.85 -1.97,8.96l10.92,27.45c1.48,3.72 5.43,5.83 9.35,5.01l28.82,-6.01c3.43,-0.71 6.04,-3.52 6.49,-6.98l1.77,-13.66c0.23,-1.77 -0.12,-3.58 -1.02,-5.13l-6.57,-11.48c-1.23,-2.14 -3.36,-3.61 -5.79,-4.02" fill="#d6b588" id="Fill-4" transform="matrix(0.913545 0.406737 -0.406737 0.913545 18.6367 -13.3833)"/>
   <g id="Icon" transform="translate(4.523929, 9.052133)">
    <g fill="#FFFFFF" id="white-fill" transform="translate(0.594938, 1.036448)">
     <rect height="33.26" id="Rectangle" rx="4" width="49.32" x="4.09" y="0"/>
     <path d="m57.33,29.36l0,1.51c0,2.21 -1.79,4 -4,4l-49.33,0c-2.21,0 -4,-1.79 -4,-4l0,-1.19l0,0l57.33,-0.32z" id="Rectangle-Copy"/>
    </g>
    <path d="m44.94,0.05c1.84,0.07 3.68,0.16 5.52,0.49c1.1,0.19 2.07,0.64 2.91,1.42c0.54,0.51 0.8,1.09 0.83,1.84c0.36,8.32 0.78,16.61 0.88,24.94c0.03,1.51 -0.17,1.38 1.45,1.42l0.51,0c1.13,0.03 1.68,0.58 1.52,1.71c-0.06,0.58 -0.23,1.19 -0.55,1.74c-1.06,1.74 -2.32,2.87 -4.64,2.93c-6.46,0.13 -12.94,0.2 -19.4,0.29c-3.96,0.07 -7.93,-0.09 -11.87,-0.09c-4.39,0 -8.81,0.06 -13.2,0.09c-0.87,0 -1.77,-0.06 -2.64,-0.09c-0.26,0 -0.55,-0.07 -0.48,-0.45c0.03,-0.3 0.12,-0.52 0.45,-0.55c0.35,-0.04 0.71,-0.07 1.06,-0.07c5.84,-0.13 11.71,-0.45 17.55,-0.42c3.55,0.04 7.13,0.13 10.68,0.07c5.52,-0.13 11.01,0.09 16.52,0l1.07,0c2.35,-0.03 3.35,-0.68 4.26,-2.81c0.38,-0.9 0.12,-1.26 -0.91,-1.23c-6.16,0.29 -12.32,0.39 -18.48,0.55c-0.84,0.04 -1.49,0.25 -2.02,0.7c-0.53,0.44 -1.83,0.65 -2.99,0.68c-3.16,0.1 -5.19,0.16 -8.36,-0.13c-0.71,-0.06 -2.68,-0.05 -2.8,-0.47c-0.16,-0.42 -0.42,-0.68 -0.97,-0.68c-6.48,0.03 -12.94,0 -19.42,0c-0.03,0 -0.1,0.03 -0.13,0.03c0.19,1.32 0.19,1.32 2.48,3.65c-0.19,0.38 -0.61,0.38 -0.87,0.22c-1.58,-1 -2.87,-2.16 -2.9,-4.29c0,-0.71 0.26,-0.97 0.87,-1c1.03,-0.03 2.1,-0.09 3.07,-0.13c0,-1.8 0.06,-3.51 0,-5.22c-0.23,-5.78 0.03,-11.52 0.06,-17.3l0,-0.26c0.03,-0.32 -0.03,-0.77 0.48,-0.77c0.52,0 0.42,0.48 0.46,0.81c0.09,2.58 0.16,5.19 0.29,7.77c0.19,4.23 0.16,8.46 0.16,12.68c0,0.62 -0.1,1.23 -0.13,1.84c-0.23,0.32 -0.36,0.52 0.1,0.49c0.61,0 1.22,0 1.83,-0.04c0.2,0.07 1.4,0.04 1.43,-0.19c0.29,-2.55 0.06,-5.1 -0.03,-7.65c-0.13,-3.29 -0.55,-6.58 -0.62,-9.87c-0.06,-2.26 0.2,-4.48 0.33,-6.71c0.06,-0.74 0.69,-0.67 1.47,-0.8c1.71,-0.12 2.23,-0.1 3.94,-0.13c4.71,-0.1 9.42,-0.13 14.13,-0.23c2.17,-0.03 4.33,0.13 6.46,0.2c4.35,0.16 8.71,0.19 13.06,0.06c0.36,0 0.71,-0.03 1.07,0.03c0.97,0.13 0.41,0.62 0.51,1.58c0.58,5.04 0.93,9 0.61,14.07c-0.19,2.84 -0.16,5.71 -0.06,8.58c0,0.55 1.23,0.81 1.81,0.77c0.84,-0.06 1.87,0.36 2.42,-0.16c0.55,-0.55 0.13,-1.58 0.1,-2.39c-0.39,-7.67 -0.75,-15.39 -0.75,-23.1c0,-1.06 -0.51,-1.55 -1.48,-2.13c-1.48,-0.87 -3.06,-0.87 -4.68,-1c-3.1,-0.24 -6.18,-0.18 -9.26,-0.09l-2.31,0.07c-1.15,0.04 -2.31,0.07 -3.46,0.09c-7.23,0.06 -14.43,0.42 -21.65,0.32c-1.16,0 -2.33,-0.03 -3.49,0.39c-0.71,0.26 -1.22,0.64 -1.42,1.35c-0.09,0.42 -0.16,0.87 -0.32,1.26c-0.16,0.39 -0.19,1 -0.87,1.07c-0.19,-1.07 -0.1,-2.23 0.26,-3.07c0.42,-0.97 1.39,-1.74 2.68,-1.87c3.06,-0.36 6.13,-0.42 9.22,-0.52c5.29,-0.13 10.55,-0.13 15.85,-0.16c4.25,-0.03 8.51,-0.29 12.8,-0.13zm1.72,5.78c-2.47,0.12 -4.98,0.31 -7.46,0.31c-7.27,0.03 -14.52,-0.03 -21.79,-0.03l-7.34,0l0,0c-0.5,0 -0.84,0.13 -0.78,0.7c0.16,1.29 -0.09,2.58 -0.09,3.88c-0.06,2.84 0.16,5.68 0.12,8.52c-0.03,3.47 0.38,6.97 0.16,10.45c-0.03,0.63 0.15,0.82 0.77,0.79c1.99,-0.07 3.97,-0.1 5.95,-0.13c8.82,-0.16 17.65,-0.44 26.47,-0.22c2.04,0.03 4.12,0 6.29,0c0,-0.54 0.06,-0.95 0,-1.39c-0.31,-2.24 -0.28,-4.48 -0.22,-6.69c0.15,-5.02 -0.25,-9.98 -0.59,-14.96c-0.09,-1.36 -0.12,-1.33 -1.49,-1.23z" fill="#151515" fill-rule="nonzero" id="Combined-Shape" stroke="#000000"/>
   </g>
   <path d="m46.45,20.86c0.6,0.51 1.33,1.07 1.87,1.87c1.82,2.67 0.09,6.39 -1.75,7.47c-0.3,0.18 -0.64,0.37 -0.98,0.45c-3.66,1.08 -7.2,-2.16 -6.46,-6c0.43,-2.1 1.78,-3.55 3.69,-4.42c0.9,-0.38 2.45,-0.07 3.63,0.63zm-0.93,1.66c-0.48,-0.34 -1.22,-0.69 -2.08,-0.38c-1.66,0.59 -2.56,2.13 -2.54,3.47c0.02,1.93 0.85,3 2.71,3.47c1.42,0.33 2.8,-0.5 3.32,-2.03c0.67,-1.76 0.2,-3.38 -1.41,-4.53z" fill="#2D2C2E" fill-rule="nonzero" id="Shape"/>
   <g fill="#2B2B2D" fill-rule="nonzero" id="Group" transform="translate(33.663180, 26.085476) rotate(-288.000000) translate(-33.663180, -26.085476) translate(30.128197, 22.549721)">
    <path d="m4.33,4.18c-0.17,0.02 -0.46,0.08 -0.75,0.07c-1.18,-0.03 -2.35,-0.05 -3.53,-0.11c-0.32,-0.01 -0.66,-0.09 -0.98,-0.18c-0.29,-0.09 -0.47,-0.42 -0.43,-0.69c0.03,-0.29 0.24,-0.45 0.48,-0.5c0.33,-0.09 0.67,-0.15 0.99,-0.17c1.16,-0.07 2.34,-0.12 3.51,-0.16c0.24,-0.01 0.5,0.04 0.75,0.09c0.4,0.09 0.68,0.41 0.7,0.77c0.05,0.36 -0.2,0.69 -0.74,0.88z" id="Path" transform="translate(1.854861, 3.345363) rotate(288.000000) translate(-1.854861, -3.345363) "/>
    <path d="m2.21,4.27c-0.19,-0.36 -0.03,-0.82 0.29,-0.94c0.32,-0.12 0.65,-0.2 0.98,-0.24c1.17,-0.14 2.34,-0.18 3.52,-0.15c0.24,0 0.5,0.03 0.74,0.1c0.4,0.11 0.66,0.46 0.65,0.83c-0.02,0.31 -0.25,0.63 -0.61,0.73c-0.24,0.06 -0.5,0.11 -0.74,0.11c-1.27,-0.01 -2.52,-0.02 -3.78,-0.05c-0.25,-0.01 -0.5,-0.07 -0.73,-0.16c-0.15,-0.05 -0.26,-0.19 -0.32,-0.23z" id="svg_1" transform="translate(5.257429, 3.820680) rotate(288.000000) translate(-5.257429, -3.820680) "/>
   </g>
   <path d="m22.95,28.12c-0.44,0.07 -0.62,0.41 -0.85,0.68c-0.56,0.68 -1.22,1.25 -1.91,1.82c-0.28,0.21 -0.58,0.41 -0.9,0.56c-0.52,0.23 -1.01,0.18 -1.42,-0.22c-0.39,-0.38 -0.4,-0.97 -0.09,-1.56c0.23,-0.42 0.59,-0.7 0.91,-1.02c0.65,-0.6 1.29,-1.18 1.91,-1.81c0.32,-0.35 0.32,-0.57 -0.01,-0.95c-0.7,-0.81 -1.44,-1.62 -2.12,-2.44c-0.24,-0.27 -0.49,-0.56 -0.62,-0.89c-0.17,-0.39 -0.13,-0.81 0.18,-1.14c0.3,-0.32 0.86,-0.39 1.28,-0.13c0.26,0.15 0.48,0.37 0.7,0.59c0.73,0.73 1.46,1.45 2.18,2.18c0.27,0.27 0.51,0.29 0.79,0.04c0.51,-0.44 1.03,-0.86 1.53,-1.3c0.36,-0.31 0.75,-0.55 1.21,-0.64c0.43,-0.09 0.83,0.01 1.11,0.37c0.23,0.3 0.23,0.74 -0.08,1.14c-0.45,0.58 -0.92,1.09 -1.38,1.64c-0.19,0.19 -0.38,0.37 -0.55,0.54c-0.33,0.35 -0.33,0.6 0.01,0.91c0.72,0.73 1.47,1.44 2.19,2.17c0.29,0.29 0.57,0.61 0.78,0.93c0.34,0.53 0.22,1.2 -0.16,1.56c-0.36,0.32 -0.98,0.36 -1.44,0.05c-0.37,-0.27 -0.7,-0.59 -1.01,-0.91c-0.78,-0.78 -1.41,-1.59 -2.24,-2.17z" fill="#2D2C2E" fill-rule="nonzero" id="svg_2"/>
  </g>
 </g>
</svg>