<?xml version="1.0"?>
<svg width="72" height="72" xmlns="http://www.w3.org/2000/svg" xmlns:svg="http://www.w3.org/2000/svg">
 <g class="layer">
  <title>Layer 1</title>
  <g fill="none" fill-rule="evenodd" id="svg_1" transform="matrix(1 0 0 1 -1 -1)">
   <path d="m61.46,35.94l-42.24,-22.6c-12.72,-6.81 -25.52,9.4 -15.66,19.84l31.68,33.58c5.01,5.3 13.56,5.28 18.69,-0.05l10.55,-10.97c5.83,-6.07 4.33,-15.86 -3.02,-19.8" fill="#d6b588" id="svg_2" transform="rotate(120 34.0576 41.2206)"/>
   <path d="m9,5l58,0l0,41l-58,0l0,-41z" fill="#FFF" id="svg_3"/>
   <g fill-rule="nonzero" id="svg_4" transform="translate(-1 -2)">
    <path d="m38.91,50.83c-9.14,0.36 -18.27,0.06 -27.41,-0.06c-0.48,-0.01 -0.96,-0.01 -1.43,-0.1c-1.75,-0.32 -2.19,-0.86 -2.05,-2.61c0.32,-4.03 0.34,-8.06 0.29,-12.1c-0.09,-7.29 -0.28,-14.57 -0.15,-21.86c0,-0.39 0.04,-0.79 0.17,-1.14c0.2,-0.58 0.35,-1.29 1.26,-1.07c0.77,0.18 1.2,0.63 1.2,1.45c0.02,1.74 0.05,3.47 0.05,5.21c0,0.57 0.13,0.84 0.8,0.84c3.66,-0.01 7.31,0 10.97,0.06c0.79,0.01 1.03,-0.2 1,-1.02a78.16,78.16 0 0 1 -0.01,-6c0.03,-0.84 -0.03,-2.12 1.14,-2.13c1.04,0 1.04,1.26 1.12,2.04c0.2,2.03 0.26,4.08 0.31,6.12c0.02,0.71 0.21,0.97 0.96,0.97c3.09,-0.01 6.18,0.01 9.27,0.09c0.86,0.03 0.99,-0.29 0.99,-1.04c-0.01,-3.35 0.01,-6.69 0.09,-10.04c0.02,-0.87 -0.46,-0.74 -0.98,-0.74c-4.35,0.03 -8.7,0.07 -13.05,0.06c-3.79,-0.01 -7.57,-0.09 -11.34,0.18c-0.85,0.06 -1.69,0.02 -2.53,-0.29c-0.68,-0.25 -1.03,-0.55 -0.94,-1.27c0.08,-0.76 0.57,-1.01 1.25,-1.02c2.57,-0.06 5.14,-0.14 7.7,-0.17c5.31,-0.07 10.62,-0.15 15.93,-0.17c10.72,-0.03 21.44,-0.05 32.17,0.15c2.16,0.05 2.36,0.37 2.53,2.46c0.79,9.58 0.67,19.18 0.75,28.78c0.01,1.39 0.03,2.77 0.02,4.16c0,0.37 0.07,0.72 -0.15,1.11c-0.38,0.66 -0.73,1.4 -1.58,1.23c-0.78,-0.15 -1.14,-0.84 -1.12,-1.67c0.02,-1.05 -0.01,-2.09 0.05,-3.13c0.03,-0.62 -0.04,-0.92 -0.81,-0.92c-3.44,0.01 -6.88,-0.01 -10.31,-0.12c-1.05,-0.04 -1.21,0.33 -1.19,1.25c0.05,2.43 -0.02,4.87 0,7.3c0.01,0.87 -0.22,1.45 -1.18,1.43c-0.9,-0.01 -1.21,-0.62 -1.22,-1.38c-0.03,-2.48 -0.08,-4.95 -0.01,-7.43c0.03,-0.96 -0.22,-1.27 -1.2,-1.26c-3.13,0.02 -6.27,-0.03 -9.4,-0.13c-0.76,-0.02 -0.85,0.26 -0.84,0.89c0.03,2.22 0.02,4.44 0.02,6.65c0,0.26 -0.01,0.52 -0.03,0.78c-0.1,0.92 -0.16,2.02 -1.4,1.96c-1.24,-0.06 -1.2,-1.15 -1.2,-2.08c0,-2.48 -0.03,-4.95 0.01,-7.43c0.02,-0.74 -0.21,-0.94 -0.94,-0.95c-3,-0.04 -6.01,-0.11 -9.01,-0.24c-0.75,-0.03 -0.84,0.25 -0.84,0.88c0,3.31 0,6.61 -0.07,9.91c-0.02,0.85 0.44,0.76 0.97,0.76c3.31,-0.05 6.62,-0.04 9.93,-0.17c8.05,-0.31 16.09,-0.17 24.15,-0.07c1.73,0.03 3.46,0.11 5.2,0.2c0.9,0.04 1.46,0.55 1.43,1.48c-0.03,0.85 -0.6,1 -1.4,1.06c-9.31,0.65 -18.63,-0.08 -27.94,0.35zm-21.6,-2.76l0,-0.02c1.92,-0.02 3.83,-0.05 5.73,-0.03c0.58,0 0.86,-0.09 0.86,-0.76c-0.01,-3.39 0.03,-6.77 0.08,-10.15c0.01,-0.61 -0.17,-0.82 -0.8,-0.83c-3.78,-0.04 -7.56,-0.07 -11.32,-0.44c-0.67,-0.07 -0.79,0.16 -0.79,0.77c0.01,3.56 0.06,7.11 -0.31,10.66c-0.07,0.68 0.11,0.89 0.82,0.86c1.91,-0.06 3.82,-0.04 5.73,-0.06zm42.75,-25.82c-1.74,0.01 -3.48,0.03 -5.21,0.04c-0.5,0 -0.93,-0.03 -0.93,0.71a723.44,723.44 0 0 1 -0.08,10.53c-0.01,0.65 0.15,0.93 0.87,0.92c3.48,-0.06 6.95,-0.09 10.42,0.11c0.76,0.05 1.11,-0.14 1.1,-0.98c-0.03,-3.55 -0.03,-7.11 -0.01,-10.66c0.01,-0.64 -0.21,-0.82 -0.82,-0.8c-1.78,0.05 -5.34,0.1 -5.34,0.13zm-42.6,11.45l0,0.02c1.88,-0.01 3.75,-0.06 5.62,-0.03c0.69,0.01 0.88,-0.2 0.86,-0.89c-0.11,-3.3 -0.21,-6.6 -0.24,-9.9c-0.01,-0.75 -0.33,-0.83 -0.93,-0.84c-3.61,-0.08 -7.22,-0.16 -10.83,-0.3c-0.83,-0.03 -1.03,0.19 -1.01,0.99c0.08,3.39 0.13,6.78 0.13,10.17c0,0.74 0.28,0.85 0.92,0.83c1.83,-0.05 3.66,-0.04 5.48,-0.06l0,0.01zm42.52,-14.21c1.74,-0.01 3.48,-0.08 5.21,-0.02c0.84,0.02 1.04,-0.25 0.97,-1.04a79.83,79.83 0 0 1 -0.25,-9.62c0.02,-0.69 -0.2,-0.88 -0.87,-0.88a567.21,567.21 0 0 1 -10.42,-0.09c-0.73,-0.02 -0.85,0.26 -0.84,0.9c0.07,3.33 0.11,6.67 0.11,10.01c0,0.68 0.18,0.9 0.88,0.87c1.74,-0.06 5.21,-0.11 5.21,-0.13zm-19.76,-11.82c-0.55,0 -0.78,0.11 -0.7,0.72c0.45,3.41 0.24,6.85 0.32,10.27c0.01,0.8 0.22,1.04 1.02,1.03c3.18,-0.06 6.35,-0.1 9.52,-0.05c0.93,0.01 1.15,-0.27 1.15,-1.16c0.02,-3.34 -0.25,-6.68 0.17,-10.01c0.1,-0.73 -0.37,-0.63 -0.79,-0.63c-1.78,0.02 -8.91,-0.16 -10.69,-0.17zm11.26,15.86c0.03,-0.91 -0.15,-1.29 -1.19,-1.26c-3.17,0.09 -6.34,0.08 -9.51,0.05c-0.77,0 -0.92,0.26 -0.91,0.97c0.05,3.25 0.08,6.5 0.06,9.75c0,0.79 0.17,1.17 1.05,1.17c3.26,0.01 6.52,0.07 9.77,0.14c0.67,0.02 0.67,-0.33 0.67,-0.8c-0.03,-1.74 0,-8.42 0.06,-10.02zm-14.18,4.63l0.06,0c-0.01,-1.65 -0.06,-3.3 -0.02,-4.95c0.02,-0.8 -0.23,-1.05 -1.03,-1.05c-3,0.02 -6.01,-0.02 -9.01,-0.09c-0.81,-0.02 -1.03,0.22 -1,1.02c0.14,3.26 0.23,6.51 0.28,9.77c0.01,0.72 0.22,0.98 0.96,0.99c3,0.02 6,0.09 9,0.18c0.63,0.02 0.83,-0.15 0.81,-0.79c-0.05,-1.69 -0.04,-3.38 -0.05,-5.08z" fill="#070707" id="svg_5"/>
    <path d="m17.03,32.94c-1.97,0.02 -3.93,0.01 -5.9,0.06c-0.68,0.02 -0.98,-0.09 -0.98,-0.84a400.86,400.86 0 0 0 -0.15,-10.16c-0.02,-0.8 0.2,-1.03 1.09,-1c3.88,0.15 7.77,0.23 11.65,0.3c0.65,0.02 1,0.09 1,0.84c0.04,3.31 0.14,6.61 0.26,9.91c0.02,0.68 -0.18,0.9 -0.93,0.89c-2.01,-0.03 -4.02,0.01 -6.04,0.03c0,-0.01 0,-0.02 0,-0.03zm37.93,-12.94c-0.68,0.02 -0.85,-0.2 -0.85,-0.89a622.15,622.15 0 0 0 -0.11,-10.19c-0.01,-0.65 0.1,-0.94 0.81,-0.92c3.36,0.07 6.72,0.09 10.09,0.1c0.64,0 0.86,0.19 0.84,0.89a85.41,85.41 0 0 0 0.25,9.79c0.07,0.81 -0.14,1.08 -0.94,1.06c-1.68,-0.05 -3.37,0.01 -5.05,0.02c0,0.03 -3.36,0.07 -5.04,0.14zm-3.05,14.2c0.01,0.47 0.01,0.82 -0.68,0.8c-3.36,-0.08 -6.72,-0.13 -10.08,-0.14c-0.91,0 -1.08,-0.37 -1.08,-1.16a430.96,430.96 0 0 0 -0.07,-9.68c-0.01,-0.7 0.15,-0.97 0.94,-0.96c3.27,0.03 6.54,0.03 9.81,-0.06c1.07,-0.03 1.26,0.35 1.23,1.26c-0.06,1.59 0.01,3.18 0.02,4.77c-0.04,0.01 -0.11,3.45 -0.09,5.17z" fill="#FEFEFE" id="svg_6"/>
    <path d="m57.5,28c-0.83,0 -1.5,-0.6 -1.5,-1.34l0,-2.32c0,-0.74 0.67,-1.34 1.5,-1.34s1.5,0.6 1.5,1.34l0,2.32c0,0.74 -0.67,1.34 -1.5,1.34zm-29,0c-0.83,0 -1.5,-0.6 -1.5,-1.34l0,-2.32c0,-0.74 0.67,-1.34 1.5,-1.34s1.5,0.6 1.5,1.34l0,2.32c0,0.74 -0.67,1.34 -1.5,1.34zm-8,16c-0.83,0 -1.5,-0.52 -1.5,-1.17l0,-3.66c0,-0.65 0.67,-1.17 1.5,-1.17s1.5,0.52 1.5,1.17l0,3.66c0,0.65 -0.67,1.17 -1.5,1.17z" fill="#070707" id="svg_7"/>
    <circle cx="20.5" cy="44.5" fill="#070707" id="svg_8" r="1.5"/>
    <path d="m43.5,15c-0.83,0 -1.5,-0.52 -1.5,-1.17l0,-3.66c0,-0.65 0.67,-1.17 1.5,-1.17s1.5,0.52 1.5,1.17l0,3.66c0,0.65 -0.68,1.17 -1.5,1.17z" fill="#070707" id="svg_9"/>
    <circle cx="43.5" cy="18.5" fill="#070707" id="svg_10" r="1.5"/>
    <circle cx="57.5" cy="31.5" fill="#070707" id="svg_11" r="1.5"/>
    <circle cx="28.5" cy="29.5" fill="#070707" id="svg_12" r="1.5"/>
   </g>
  </g>
 </g>
</svg>