<?xml version="1.0"?>
<svg width="72" height="72" xmlns="http://www.w3.org/2000/svg" xmlns:svg="http://www.w3.org/2000/svg">
 <g class="layer">
  <title>Layer 1</title>
  <g fill="none" fill-rule="evenodd" id="svg_1">
   <path d="m30.74,13.51l-19.7,12.02c-10.84,6.62 -10.69,22.3 0.28,28.72l21.21,12.4c11.66,6.82 26.27,-2.06 25.44,-15.47l-1.52,-24.43c-0.78,-12.63 -14.85,-19.87 -25.71,-13.24" fill="#d6b588" id="svg_2"/>
   <path d="m48.44,7c1.96,0.25 3.26,0.65 3.9,1.21c0.96,0.85 2.61,4.75 2.66,6.58c0.02,0.96 -0.09,2.69 -0.2,4.37l0.11,-0.16c3.48,0.03 5.82,0.26 7.02,0.7c1.8,0.65 4.12,2.24 4.74,3.33c0.62,1.09 0.79,4.59 0.92,7.25c0.14,2.67 0.84,3.46 0,5.37c-0.84,1.91 -3.59,5.66 -7.49,5.42c-3.91,-0.24 -4.28,-0.17 -4.58,0.44c-0.14,0.27 -0.41,1.85 -0.68,3.56l-0.11,0.64c-0.3,1.81 -0.6,3.6 -0.78,3.92c-0.37,0.66 -1.63,2.57 -2.16,2.65c-0.53,0.08 -6.3,0.83 -9.05,0.71c-2.74,-0.12 -4.09,-0.08 -5.47,-0.33c-1.39,-0.26 -2.76,-0.35 -3.44,-0.69c-0.33,-0.17 -0.57,-0.45 -0.71,-0.83c-0.3,0.44 -0.46,0.71 -0.43,0.77c0.23,0.45 -0.73,-0.79 -2.88,-3.73c0.21,-3.54 -0.09,-5.92 -0.9,-7.15l-4.13,-0.42a78.92,78.92 0 0 0 -3.25,-0.54c-1.6,-0.23 -1.69,-1.92 -1.9,-2.22c-0.14,-0.2 -0.35,-2.06 -0.63,-5.57l1.31,-9.69l3.55,-2.3l6.82,-0.85l0.76,-1.34c-0.59,-6.66 0.18,-10.09 2.28,-10.29c2.11,-0.21 7.01,-0.48 14.72,-0.81z" fill="#FFF" id="svg_3"/>
   <g fill="#000" fill-rule="nonzero" id="svg_4">
    <path d="m29.84,18.05c0.11,-2.25 0.05,-4.32 0.35,-6.34c0.65,-4.43 3.07,-6.76 7.59,-7.34c3.91,-0.51 7.86,-0.48 11.78,0.01c4,0.5 5.87,2.46 6.11,7.03c0.25,4.61 0.13,9.25 -0.11,13.86c-0.18,3.27 -3.07,5.99 -6.39,6.27c-3.65,0.3 -7.33,0.38 -11,0.54c-0.51,0.03 -1.03,0 -1.54,0.03c-2.59,0.13 -3.71,1.01 -3.86,3.57c-0.18,3.22 -0.08,6.45 -0.07,9.68c0.01,0.82 0.15,1.63 0.22,2.45c0.2,2.13 1.18,3.28 3.36,3.47c4.34,0.39 8.69,0.51 13.04,-0.03c1.77,-0.21 2.8,-1.37 3.09,-2.98c0.33,-1.89 0.38,-3.82 0.57,-5.86c-0.53,-0.03 -0.87,-0.07 -1.2,-0.07c-1.74,0.02 -3.48,0.06 -5.23,0.08c-0.41,0 -0.84,0.01 -1.25,-0.05c-0.65,-0.1 -1.31,-0.4 -1.22,-1.1c0.07,-0.45 0.55,-1.07 0.98,-1.21c0.97,-0.31 2.02,-0.46 3.03,-0.51c3.32,-0.17 6.64,-0.23 9.96,-0.42a27.35,27.35 0 0 0 4.11,-0.56c1.45,-0.3 2.36,-1.13 2.4,-2.76c0.07,-3.74 0.32,-7.47 0.32,-11.2c0,-1.91 -1.48,-3.24 -3.43,-3.53c-1.46,-0.22 -2.13,-0.78 -2,-1.71c0.13,-0.97 1.15,-1.48 2.53,-1.25c3.58,0.59 5.98,2.96 6.02,6.5c0.04,4.04 -0.23,8.1 -0.48,12.14c-0.13,1.92 -1.3,3.26 -3.05,4.11c-2.12,1.03 -4.4,1.18 -6.69,1.31c-0.47,0.03 -0.94,0.01 -1.35,0.01c-0.09,1.73 -0.13,3.31 -0.27,4.88c-0.07,0.78 -0.29,1.55 -0.53,2.31c-0.98,3.05 -3.08,4.79 -6.33,5.24c-4.24,0.58 -8.51,0.41 -12.75,0.06c-3.93,-0.32 -6.38,-2.68 -6.8,-6.93c-0.41,-4.18 -0.48,-8.43 -0.27,-12.62c0.2,-3.97 2.36,-5.88 6.4,-6.34c1.44,-0.17 2.9,-0.08 4.35,-0.13c2.8,-0.1 5.6,-0.3 8.41,-0.31c1.84,-0.02 3.67,-1.9 3.76,-3.51c0.28,-4.74 0.57,-9.49 -0.24,-14.22c-0.29,-1.68 -1.22,-2.61 -2.82,-2.77c-4.05,-0.41 -8.1,-0.6 -12.15,0.03c-2.27,0.35 -3.48,1.81 -3.9,3.82c-0.4,1.97 -0.46,4.01 -0.69,6.14c0.52,0.03 0.86,0.06 1.19,0.05c1.94,-0.02 3.87,-0.05 5.81,-0.07c0.42,-0.01 0.9,-0.08 1.24,0.1c0.43,0.23 1.01,0.65 1.04,1.03c0.03,0.38 -0.45,1.05 -0.84,1.17a13.57,13.57 0 0 1 -3.22,0.56c-3.28,0.18 -6.57,0.24 -9.86,0.42c-1.4,0.08 -2.82,0.28 -4.2,0.58c-1.41,0.31 -2.29,1.13 -2.32,2.72c-0.08,3.73 -0.33,7.47 -0.33,11.2c0,1.92 1.47,3.26 3.41,3.55c0.06,0.01 0.13,0.01 0.19,0.02c1.27,0.19 1.93,0.78 1.83,1.66c-0.1,0.9 -1.01,1.44 -2.22,1.33c-3.55,-0.34 -6.28,-2.91 -6.32,-6.42c-0.04,-4.08 0.22,-8.17 0.47,-12.25c0.12,-1.91 1.28,-3.26 3.03,-4.12c2.07,-1.02 4.32,-1.18 6.58,-1.32c0.6,-0.03 1.21,0 1.76,0z" id="svg_5"/>
    <path d="m39.44,15c-0.84,-0.01 -1.46,-0.63 -1.44,-1.46c0.02,-0.86 0.68,-1.53 1.51,-1.54a1.48,1.48 0 0 1 1.49,1.53c-0.02,0.85 -0.69,1.48 -1.56,1.47zm9.56,31.53c-0.05,0.92 -0.67,1.5 -1.56,1.47c-0.89,-0.04 -1.49,-0.7 -1.44,-1.57c0.06,-0.84 0.78,-1.46 1.65,-1.43c0.87,0.04 1.39,0.64 1.35,1.53z" id="svg_6"/>
   </g>
  </g>
 </g>
</svg>