<?xml version="1.0"?>
<svg width="200" height="200" xmlns="http://www.w3.org/2000/svg" xmlns:svg="http://www.w3.org/2000/svg">
 <g class="layer">
  <title>Layer 1</title>
  <g id="svg_1" transform="matrix(1 0 0 1 0 0)">
   <path d="m58.46,17l47.64,0c14.16,0 26.17,10.35 28.22,24.31l14.41,98.12c3.07,20.88 -16.96,37.69 -37.09,31.13l-29.67,-9.68c-1.25,-0.41 -2.53,-0.73 -3.83,-0.96l-44.63,-7.98c-23.85,-4.27 -31.84,-34.35 -13.22,-49.81l0,0c6.64,-5.51 10.41,-13.73 10.26,-22.34l-0.61,-33.86c-0.29,-15.89 12.57,-28.93 28.52,-28.93z" fill="#d6b588" id="svg_2"/>
  </g>
  <path clip-rule="evenodd" d="m71.47,59.93l0,111l37.59,0l0,-48.94l14.6,3.17l26.54,45.77l31.84,0l4.43,-7.25l-23,-38.52l-13.27,-8.61l16.8,-9.52l11.5,-22.2l-8.4,-22.66l-19.9,-12.24l-68.73,0c-5.53,0 -10,4.48 -10,10zm36.01,27.57l0.1,1.56c0.34,5.26 4.7,9.36 9.98,9.36l11.31,0c3.61,0 6.94,-1.95 8.71,-5.09l0.52,-0.92c1.97,-3.5 1.65,-7.84 -0.8,-11.02l-1.08,-1.4c-2.05,-2.64 -5.28,-4.09 -8.61,-3.86l-10.84,0.76c-5.49,0.38 -9.64,5.12 -9.29,10.61z" fill="white" fill-rule="evenodd" id="svg_3"/>
  <path d="m145.52,119l0.94,-3.88c-2.02,-0.49 -4.08,0.64 -4.73,2.61c-0.66,1.97 0.3,4.12 2.21,4.95l1.58,-3.68zm9.92,4.28l-1.58,3.68l1.58,-3.68zm-46.97,6.46l5.26,0l0,-8l-5.26,0l0,8zm13.51,4.1c4.03,5.83 7.54,12.05 11.27,18.9c3.71,6.81 7.64,14.24 12.41,22.24l6.87,-4.1c-4.67,-7.82 -8.49,-15.06 -12.26,-21.97c-3.74,-6.87 -7.42,-13.41 -11.71,-19.62l-6.58,4.55zm64.37,24.46l-18.51,-29.43l-6.78,4.26l18.52,29.43l6.77,-4.26zm-29.32,-38.69l-9.93,-4.28l-3.16,7.35l9.92,4.28l3.17,-7.35zm-12.46,3.28c1.62,0.39 3.38,0.29 4.98,0c1.67,-0.29 3.48,-0.83 5.33,-1.56c3.69,-1.47 7.82,-3.81 11.68,-6.91c7.65,-6.16 14.84,-15.83 14.66,-28.28l-8,0.12c0.13,9.09 -5.12,16.65 -11.68,21.93c-3.25,2.61 -6.68,4.54 -9.61,5.7c-1.47,0.58 -2.75,0.95 -3.77,1.13c-1.08,0.19 -1.6,0.12 -1.7,0.1l-1.89,7.77zm1.14,-65.95c1.63,-0.08 4.19,0.39 7.28,1.67c3.02,1.25 6.29,3.19 9.3,5.75c6.04,5.14 10.79,12.56 10.93,21.9l8,-0.12c-0.18,-12.21 -6.43,-21.65 -13.74,-27.87c-3.66,-3.11 -7.64,-5.48 -11.43,-7.05c-3.72,-1.55 -7.5,-2.43 -10.72,-2.27l0.38,7.99zm22.13,71.93c-2.59,-4.11 -6.36,-7.34 -10.81,-9.26l-3.17,7.35c2.97,1.28 5.48,3.43 7.2,6.17l6.78,-4.26zm-54.11,0.87c3.4,0 6.48,1.53 8.25,4.1l6.58,-4.55c-3.42,-4.96 -9.09,-7.55 -14.83,-7.55l0,8z" fill="black" id="svg_4"/>
  <path d="m68.19,82.94c0.69,-4.7 0.31,-9.44 0.43,-14.1c0.04,-1.09 -0.05,-2.23 0.11,-3.33c0.15,-1.33 0.97,-2.15 2.16,-2.3c1.57,-0.13 2.75,0.35 3.42,1.5c0.51,0.88 0.65,1.84 0.67,2.82c0.09,3.49 0.18,6.92 0.27,10.42c0.07,1.54 0.06,3.03 0.12,4.58c-0.22,7.36 0.24,14.67 0.84,22.02c-0.01,8.38 -0.16,16.77 0.02,25.14c0.32,14.09 0.26,28.21 -0.11,42.3c-0.04,1.1 -0.14,2.25 -0.37,3.3c-0.28,1.23 -1.45,1.67 -2.81,1.32c-1.29,-0.35 -2.17,-1.08 -2.52,-2.2c-0.43,-1.46 -0.75,-3.04 -0.81,-4.53c-0.17,-4.46 -0.16,-8.94 -0.2,-13.41c-0.18,-16.23 -0.35,-32.4 -0.59,-48.62c-0.02,-0.97 0.22,-1.97 -0.43,-2.89c0.61,-7.34 -0.11,-14.68 -0.2,-22.02z" fill="black" id="svg_5"/>
  <path d="m136.85,48.5c3.4,0.86 6.71,0.42 10.02,0.6c0.78,0.05 1.58,-0.05 2.38,0.15c0.96,0.18 1.61,1.17 1.84,2.6c0.25,1.88 0.02,3.29 -0.72,4.08c-0.58,0.61 -1.24,0.77 -1.93,0.79c-2.47,0.09 -4.89,0.18 -7.35,0.27c-1.09,0.06 -2.15,0.05 -3.24,0.12c-5.23,-0.32 -10.36,0.2 -15.51,0.87c-5.93,-0.06 -11.89,-0.28 -17.79,-0.12c-9.95,0.3 -19.96,0.15 -29.97,-0.38c-0.78,-0.05 -1.61,-0.17 -2.37,-0.46c-0.9,-0.34 -1.33,-1.74 -1.22,-3.36c0.13,-1.55 0.56,-2.61 1.32,-3.01c0.98,-0.51 2.07,-0.89 3.12,-0.95c3.14,-0.18 6.31,-0.13 9.48,-0.16c11.47,-0.12 22.9,-0.24 34.36,-0.43c0.69,-0.02 1.42,0.27 2.01,-0.49c5.25,0.77 10.38,-0.06 15.57,-0.12z" fill="black" id="svg_6"/>
  <path d="m135.09,75.11l2.36,-3.23l-2.36,3.23zm0.97,22.61l-2.55,-3.09l2.55,3.09zm-27.59,4.21l26.98,0l0,-8l-26.98,0l0,8zm30.14,-1.13c0.76,-0.63 2.84,-2.42 4.76,-4.79c1.79,-2.2 4.1,-5.67 4.1,-9.58l-8,0c0,0.98 -0.73,2.59 -2.31,4.54c-1.44,1.78 -3.07,3.18 -3.65,3.66l5.1,6.17zm8.86,-14.37c0,-2.15 -0.75,-4.1 -1.62,-5.65c-0.88,-1.58 -2.01,-3 -3.1,-4.18c-2.17,-2.36 -4.5,-4.13 -5.3,-4.72l-4.73,6.46c0.62,0.45 2.48,1.87 4.15,3.68c0.82,0.9 1.52,1.8 1.99,2.65c0.48,0.87 0.61,1.44 0.61,1.76l8,0zm-12.95,-15.5l-19.55,0l0,8l19.55,0l0,-8zm2.93,0.95c-0.9,-0.65 -1.93,-0.95 -2.93,-0.95l0,8c-0.59,0 -1.23,-0.18 -1.8,-0.59l4.73,-6.46zm-2,30.05c1.09,0 2.22,-0.35 3.16,-1.13l-5.1,-6.17c0.59,-0.49 1.3,-0.7 1.94,-0.7l0,8z" fill="black" id="svg_7"/>
  <path d="m109.52,72.84c-0.28,0.13 -2.02,1.08 -2,3.04c0.01,1.13 0.99,1.99 1.91,2.54c0.96,0.59 2.11,0.73 3.24,0.72l4.49,-0.05l2.5,-0.09l-0.35,-7.98c0,0 -0.76,0.02 -1.75,0.05c-0.82,0.03 -1.65,-0.07 -2.47,-0.09c-0.23,-0.01 -0.45,0 -0.62,0.04c-1.89,0.42 -4.54,1.63 -4.88,1.78l-0.01,0c-0.02,0.01 -0.04,0.02 -0.06,0.04z" fill="black" id="svg_8"/>
  <path d="m77.47,176.97c-1.85,-0.64 -3.55,-0.3 -5.29,-0.42c-0.42,-0.04 -0.82,0.05 -1.26,-0.11c-0.52,-0.13 -0.95,-0.88 -1.19,-1.98c-0.3,-1.44 -0.3,-2.52 0.02,-3.13c0.24,-0.47 0.58,-0.6 0.94,-0.61c1.28,-0.09 2.54,-0.16 3.82,-0.24c0.56,-0.06 1.11,-0.05 1.68,-0.11c2.76,0.22 5.4,-0.2 8.03,-0.74c3.11,0.03 6.24,0.17 9.32,0.03c5.17,-0.28 10.42,-0.21 15.7,0.16c0.41,0.03 0.86,0.12 1.28,0.34c0.5,0.26 0.85,1.33 0.93,2.57c0.08,1.19 -0.06,2 -0.42,2.32c-0.47,0.39 -1,0.68 -1.55,0.73c-1.62,0.16 -3.29,0.13 -4.94,0.17c-5.99,0.14 -11.95,0.28 -17.93,0.48c-0.36,0.01 -0.77,-0.21 -1.01,0.38c-2.81,-0.56 -5.42,0.09 -8.13,0.16z" fill="black" id="svg_9"/>
  <path d="m152.57,176.84c-1.76,-0.64 -3.35,-0.29 -5,-0.41c-0.39,-0.04 -0.77,0.05 -1.18,-0.1c-0.49,-0.14 -0.92,-0.89 -1.18,-1.98c-0.31,-1.44 -0.35,-2.52 -0.06,-3.12c0.22,-0.47 0.53,-0.6 0.87,-0.62c1.2,-0.08 2.39,-0.16 3.59,-0.24c0.53,-0.06 1.05,-0.05 1.58,-0.1c2.61,0.21 5.08,-0.21 7.55,-0.75c2.93,0.02 5.88,0.16 8.77,0.01c4.87,-0.28 9.81,-0.22 14.8,0.14c0.39,0.04 0.81,0.13 1.21,0.34c0.48,0.26 0.83,1.33 0.95,2.57c0.1,1.18 -0.01,1.99 -0.34,2.3c-0.43,0.4 -0.93,0.69 -1.44,0.74c-1.53,0.16 -3.1,0.14 -4.65,0.17c-5.64,0.15 -11.25,0.3 -16.88,0.5c-0.34,0.01 -0.72,-0.2 -0.94,0.39c-2.66,-0.57 -5.1,0.09 -7.65,0.16z" fill="black" id="svg_10"/>
  <path d="m110.29,97.45c-0.61,1.14 -0.29,1.93 -0.42,2.87c-0.04,0.22 0.04,0.41 -0.1,0.68c-0.13,0.31 -0.85,0.74 -1.88,1.17c-1.36,0.56 -2.11,0.52 -2.68,0.52c-0.44,0 -0.49,-0.28 -0.5,-0.46c-0.07,-0.64 -0.49,-0.79 -0.56,-1.43c-0.05,-0.28 -0.04,-0.57 -0.09,-0.85c0.21,-1.5 -0.17,-2.75 -0.67,-3.97c0.04,-1.63 0.19,-3.3 0.06,-4.86c-0.24,-2.61 -0.15,-5.36 0.22,-8.21c0.04,-0.22 0.12,-0.48 0.33,-0.76c0.24,-0.33 1.26,-0.81 2.44,-1.2c1.12,-0.37 1.88,-0.53 2.18,-0.43c0.37,0.13 0.64,0.33 0.69,0.6c0.13,0.81 0.11,1.68 0.13,2.53c0.11,3.07 0.22,6.14 0.38,9.19c0.01,0.19 0.08,-0.2 0.57,0.29c-0.54,1.63 -0.15,2.93 -0.1,4.32z" fill="black" id="svg_11"/>
  <path d="m104.8,131.48c0.79,-2.32 0.46,-4.52 0.66,-6.75c0.05,-0.52 -0.03,-1.05 0.16,-1.6c0.17,-0.65 1.04,-1.13 2.29,-1.35c1.66,-0.26 2.89,-0.17 3.57,0.29c0.52,0.36 0.66,0.8 0.66,1.26c0.05,1.64 0.1,3.27 0.15,4.92c0.04,0.72 0.01,1.43 0.06,2.16c-0.34,3.52 0.04,6.94 0.57,10.36c-0.14,3.98 -0.4,7.98 -0.34,11.94c0.14,6.65 -0.12,13.36 -0.71,20.1c-0.06,0.53 -0.18,1.09 -0.43,1.62c-0.31,0.61 -1.55,0.97 -2.97,0.97c-1.35,-0.01 -2.27,-0.25 -2.61,-0.74c-0.44,-0.64 -0.75,-1.35 -0.79,-2.05c-0.12,-2.1 -0.04,-4.23 -0.02,-6.35c0.04,-7.69 0.08,-15.35 0.06,-23.02c0,-0.46 0.26,-0.96 -0.41,-1.33c0.74,-3.55 0.09,-6.95 0.1,-10.43z" fill="black" id="svg_12"/>
  <path d="m183.96,165.63c0.66,0.18 1.71,0.28 2.81,-0.4c0.78,-0.48 1.14,-1.33 1.29,-2.13c0.25,-1.32 -0.32,-2.61 -1.02,-3.75l-1.64,-2.65l-1.14,-1.73l-6.68,4.37c0,0 0.39,0.61 0.88,1.36c0.32,0.48 0.59,1 1,1.4c0.88,0.85 2.43,2.13 3.26,2.81c0.38,0.3 0.78,0.59 1.24,0.72z" fill="black" id="svg_13"/>
 </g>
</svg>