<?xml version="1.0"?>
<svg width="72" height="72" xmlns="http://www.w3.org/2000/svg" xmlns:svg="http://www.w3.org/2000/svg">
 <defs>
  <path d="m0.02,2.55c0.11,0.87 0.74,1.54 1.62,1.75c0.91,0.21 1.8,-0.11 2.26,-0.82c0.26,-0.42 0.47,-0.88 0.33,-1.39c-0.04,-0.15 -0.24,-0.35 -0.38,-0.36c-0.14,-0.01 -0.34,0.16 -0.44,0.3c-0.09,0.12 -0.08,0.32 -0.12,0.47c-0.16,0.58 -0.6,0.87 -1.2,0.79c-0.59,-0.08 -0.99,-0.43 -1.01,-0.91c-0.03,-0.48 0.44,-1.04 0.96,-1.16c0.45,-0.1 0.88,0 1.31,0.12c0.13,0.03 0.37,-0.03 0.42,-0.12a0.55,0.55 0 0 0 -0.01,-0.48a1.12,1.12 0 0 0 -0.51,-0.4c-0.31,-0.11 -0.65,-0.15 -0.97,-0.22c-1.32,0.05 -2.42,1.21 -2.26,2.43z" id="a"/>
  <path d="m1.33,0.29c-0.86,0.39 -1.36,1.25 -1.29,2.24c0.07,1.01 0.68,1.82 1.57,2.07c0.52,0.15 1.05,0.22 1.53,-0.09c0.15,-0.09 0.29,-0.36 0.26,-0.51c-0.03,-0.15 -0.27,-0.3 -0.45,-0.36c-0.15,-0.06 -0.35,0.02 -0.53,0.02c-0.65,0.02 -1.08,-0.34 -1.19,-0.99c-0.11,-0.63 0.13,-1.16 0.62,-1.34c0.48,-0.18 1.21,0.13 1.5,0.63c0.25,0.44 0.29,0.91 0.3,1.4c0,0.14 0.14,0.37 0.26,0.4c0.14,0.03 0.39,-0.05 0.49,-0.17c0.14,-0.18 0.24,-0.43 0.25,-0.65c0.02,-0.36 -0.04,-0.72 -0.07,-1.08c-0.37,-1.05 -1.39,-1.75 -2.4,-1.75c-0.29,0 -0.58,0.06 -0.85,0.18z" id="c"/>
  <path d="m0.68,1.15c-0.46,0.73 -0.41,1.64 0.14,2.36c0.57,0.73 1.44,1.05 2.24,0.79c0.47,-0.15 0.92,-0.36 1.13,-0.84c0.07,-0.14 0.04,-0.42 -0.06,-0.52c-0.1,-0.1 -0.36,-0.09 -0.52,-0.05c-0.15,0.04 -0.27,0.19 -0.4,0.29c-0.49,0.34 -1,0.28 -1.41,-0.16c-0.4,-0.43 -0.48,-0.95 -0.2,-1.33c0.28,-0.38 1,-0.51 1.46,-0.28c0.42,0.21 0.68,0.55 0.94,0.92c0.07,0.1 0.29,0.21 0.39,0.17a0.54,0.54 0 0 0 0.29,-0.37a1.11,1.11 0 0 0 -0.13,-0.62c-0.17,-0.29 -0.4,-0.53 -0.6,-0.8a2.41,2.41 0 0 0 -1.46,-0.48c-0.73,0 -1.43,0.32 -1.81,0.92z" id="e"/>
  <path d="m1.84,0.16c-0.31,0.16 -0.59,0.38 -0.88,0.58c-0.9,1.05 -0.79,2.73 0.25,3.48c0.75,0.53 1.71,0.54 2.5,0c0.82,-0.54 1.21,-1.45 0.99,-2.31c-0.13,-0.51 -0.33,-0.99 -0.82,-1.25c-0.15,-0.07 -0.44,-0.06 -0.55,0.04c-0.11,0.1 -0.12,0.36 -0.09,0.54c0.03,0.16 0.19,0.29 0.28,0.44c0.33,0.54 0.23,1.07 -0.26,1.48c-0.48,0.4 -1.04,0.45 -1.42,0.12c-0.38,-0.32 -0.48,-1.08 -0.2,-1.56c0.25,-0.42 0.63,-0.68 1.03,-0.92c0.12,-0.08 0.24,-0.3 0.21,-0.41c-0.04,-0.14 -0.23,-0.31 -0.38,-0.33a1.16,1.16 0 0 0 -0.66,0.1z" id="g"/>
  <path d="m3.59,0.3c-0.52,0.06 -1.03,0.24 -1.55,0.36c-1.84,1.01 -2.58,3.45 -1.5,5.08c0.77,1.15 2.14,1.67 3.55,1.33c1.44,-0.34 2.48,-1.42 2.63,-2.76c0.09,-0.79 0.06,-1.58 -0.5,-2.21c-0.17,-0.18 -0.59,-0.32 -0.8,-0.24c-0.21,0.08 -0.37,0.45 -0.42,0.73c-0.04,0.24 0.11,0.51 0.16,0.77c0.18,0.93 -0.23,1.65 -1.14,1.96c-0.9,0.31 -1.72,0.08 -2.09,-0.58c-0.37,-0.66 -0.1,-1.79 0.55,-2.33c0.57,-0.47 1.25,-0.62 1.96,-0.76c0.2,-0.04 0.5,-0.29 0.51,-0.47c0.01,-0.22 -0.17,-0.56 -0.36,-0.67a1.81,1.81 0 0 0 -0.85,-0.22c-0.05,0 -0.1,0.01 -0.15,0.01z" id="i"/>
  <path d="m2.17,0.12a1.65,1.65 0 0 0 -0.8,0.49c-0.31,0.37 -0.55,0.82 -0.81,1.23c-0.62,1.85 0.39,3.96 2.13,4.37c1.23,0.29 2.46,-0.24 3.2,-1.36c0.76,-1.15 0.79,-2.53 0.06,-3.53c-0.43,-0.58 -0.93,-1.1 -1.7,-1.17c-0.22,-0.02 -0.6,0.16 -0.69,0.35c-0.09,0.19 0.04,0.54 0.18,0.75c0.12,0.19 0.39,0.28 0.58,0.42c0.7,0.51 0.86,1.26 0.44,2.05c-0.41,0.77 -1.1,1.14 -1.76,0.93c-0.66,-0.2 -1.17,-1.14 -1.07,-1.91c0.1,-0.68 0.45,-1.22 0.84,-1.76c0.11,-0.16 0.16,-0.51 0.06,-0.64c-0.11,-0.13 -0.36,-0.23 -0.56,-0.23a0.42,0.42 0 0 0 -0.1,0.01z" id="k"/>
  <path d="m2.73,0.6c-0.33,0.08 -0.68,0.27 -0.9,0.52c-0.35,0.39 -0.61,0.87 -0.91,1.32c-0.7,1.99 0.42,4.33 2.35,4.82c1.37,0.35 2.76,-0.19 3.59,-1.39c0.85,-1.23 0.89,-2.74 0.08,-3.85c-0.47,-0.65 -1.04,-1.23 -1.89,-1.32c-0.25,-0.03 -0.67,0.15 -0.77,0.36c-0.1,0.2 0.04,0.59 0.19,0.82c0.13,0.21 0.43,0.31 0.65,0.47c0.78,0.59 0.95,1.4 0.48,2.25c-0.46,0.84 -1.23,1.22 -1.97,0.97c-0.73,-0.24 -1.3,-1.28 -1.18,-2.11c0.11,-0.74 0.51,-1.32 0.95,-1.9c0.12,-0.17 0.17,-0.56 0.06,-0.7c-0.12,-0.15 -0.41,-0.27 -0.63,-0.27a0.45,0.45 0 0 0 -0.1,0.01z" id="m"/>
  <path d="m3.82,0.36c-0.25,0.02 -0.6,0.27 -0.65,0.48c-0.06,0.21 0.15,0.54 0.34,0.74c0.16,0.16 0.47,0.2 0.7,0.31c0.85,0.39 1.17,1.11 0.9,2c-0.27,0.86 -0.92,1.37 -1.65,1.29c-0.74,-0.09 -1.48,-0.94 -1.53,-1.74c-0.05,-0.71 0.21,-1.33 0.51,-1.96c0.08,-0.18 0.05,-0.55 -0.08,-0.66c-0.16,-0.13 -0.54,-0.19 -0.74,-0.1a1.71,1.71 0 0 0 -0.73,0.66c-0.26,0.43 -0.41,0.93 -0.6,1.41c-0.26,1.99 1.25,3.95 3.16,4.03c1.36,0.06 2.55,-0.71 3.09,-1.99c0.56,-1.32 0.29,-2.73 -0.68,-3.61c-0.53,-0.47 -1.12,-0.87 -1.85,-0.87c-0.06,0 -0.12,0 -0.19,0.01z" id="o"/>
  <path d="m4.41,0.31c-0.61,0.07 -1.21,0.27 -1.81,0.42c-2.14,1.17 -3.01,4.01 -1.74,5.9c0.89,1.35 2.48,1.95 4.12,1.56c1.69,-0.4 2.89,-1.65 3.07,-3.21c0.1,-0.92 0.07,-1.84 -0.58,-2.57c-0.2,-0.22 -0.69,-0.38 -0.94,-0.29c-0.24,0.1 -0.42,0.53 -0.48,0.85c-0.05,0.28 0.13,0.6 0.19,0.9c0.21,1.09 -0.28,1.92 -1.34,2.28c-1.04,0.36 -2,0.09 -2.43,-0.67c-0.43,-0.78 -0.11,-2.09 0.64,-2.71c0.67,-0.55 1.46,-0.73 2.28,-0.89c0.24,-0.05 0.58,-0.34 0.6,-0.54c0.01,-0.26 -0.2,-0.66 -0.42,-0.79a2.11,2.11 0 0 0 -0.99,-0.25c-0.06,0 -0.12,0 -0.17,0.01z" id="q"/>
  <path d="m0.84,4.69c0.01,1.9 1.18,3.52 3.05,4.2c1.9,0.7 3.9,0.26 5.09,-1.17c0.69,-0.83 1.26,-1.75 1.09,-2.89c-0.05,-0.34 -0.43,-0.82 -0.73,-0.89c-0.3,-0.07 -0.76,0.25 -1.03,0.52c-0.22,0.24 -0.25,0.67 -0.39,1c-0.5,1.21 -1.52,1.71 -2.79,1.38c-1.26,-0.32 -2.03,-1.21 -1.95,-2.24c0.07,-1.04 1.24,-2.12 2.38,-2.24c1.01,-0.11 1.91,0.22 2.82,0.6c0.26,0.11 0.79,0.04 0.93,-0.15c0.19,-0.24 0.24,-0.77 0.1,-1.04a2.44,2.44 0 0 0 -0.98,-0.99c-0.64,-0.33 -1.36,-0.51 -2.05,-0.75a4.89,4.89 0 0 0 -0.43,-0.02c-2.69,0 -5.12,2.14 -5.11,4.68z" id="s"/>
  <path d="m0.08,4.82c0.01,1.93 1.2,3.57 3.09,4.26c1.93,0.71 3.96,0.26 5.16,-1.19c0.7,-0.84 1.28,-1.78 1.11,-2.93c-0.05,-0.35 -0.44,-0.83 -0.74,-0.9c-0.31,-0.07 -0.78,0.25 -1.04,0.53c-0.23,0.24 -0.26,0.67 -0.4,1.01c-0.51,1.23 -1.54,1.73 -2.83,1.4c-1.28,-0.33 -2.05,-1.22 -1.98,-2.27c0.08,-1.06 1.26,-2.15 2.42,-2.27c1.02,-0.11 1.93,0.22 2.85,0.6c0.27,0.11 0.8,0.05 0.95,-0.14c0.19,-0.25 0.24,-0.79 0.1,-1.06a2.47,2.47 0 0 0 -1,-1c-0.65,-0.34 -1.38,-0.52 -2.08,-0.77a5.14,5.14 0 0 0 -0.43,-0.02c-2.73,0 -5.19,2.17 -5.18,4.75z" id="u"/>
  <path d="m0.12,4.76c0,1.91 1.18,3.53 3.05,4.22c1.92,0.7 3.93,0.25 5.12,-1.17c0.69,-0.84 1.27,-1.77 1.1,-2.91c-0.05,-0.35 -0.43,-0.83 -0.74,-0.9c-0.3,-0.06 -0.76,0.25 -1.03,0.53c-0.22,0.24 -0.26,0.67 -0.39,1c-0.51,1.22 -1.53,1.72 -2.81,1.39c-1.26,-0.33 -2.03,-1.21 -1.96,-2.25c0.08,-1.05 1.25,-2.14 2.4,-2.25c1.01,-0.11 1.91,0.22 2.82,0.6c0.27,0.11 0.8,0.05 0.95,-0.15c0.18,-0.24 0.23,-0.77 0.09,-1.04a2.45,2.45 0 0 0 -0.98,-1c-0.65,-0.33 -1.37,-0.51 -2.06,-0.75a5.1,5.1 0 0 0 -0.43,-0.02c-2.71,0 -5.14,2.15 -5.13,4.7z" id="w"/>
  <path d="m1.89,0.36a1.32,1.32 0 0 0 -0.68,0.33c-0.28,0.27 -0.49,0.61 -0.74,0.92c-0.61,1.42 0.08,3.19 1.46,3.65c0.99,0.33 2.02,0.01 2.7,-0.83c0.68,-0.86 0.79,-1.96 0.26,-2.81c-0.31,-0.5 -0.69,-0.96 -1.3,-1.07c-0.19,-0.03 -0.5,0.08 -0.59,0.22c-0.08,0.14 0,0.44 0.1,0.62c0.08,0.16 0.3,0.25 0.44,0.38c0.54,0.46 0.62,1.07 0.24,1.67c-0.39,0.58 -0.97,0.83 -1.49,0.61c-0.53,-0.22 -0.89,-1.01 -0.75,-1.62c0.12,-0.53 0.44,-0.93 0.79,-1.33c0.1,-0.12 0.16,-0.4 0.09,-0.51c-0.09,-0.12 -0.32,-0.23 -0.48,-0.23a0.35,0.35 0 0 0 -0.05,0z" id="y"/>
  <path d="m0.39,3.01c0.28,0.83 0.96,1.37 1.77,1.4c0.83,0.03 1.53,-0.44 1.77,-1.23c0.14,-0.46 0.22,-0.95 -0.01,-1.42c-0.07,-0.14 -0.29,-0.3 -0.41,-0.28c-0.13,0.01 -0.26,0.21 -0.32,0.37c-0.04,0.14 0,0.33 0,0.49c-0.01,0.6 -0.32,0.96 -0.86,1c-0.52,0.03 -0.94,-0.24 -1.07,-0.7c-0.12,-0.47 0.16,-1.1 0.58,-1.32c0.37,-0.19 0.76,-0.17 1.16,-0.13c0.11,0.01 0.31,-0.1 0.33,-0.2a0.61,0.61 0 0 0 -0.11,-0.47a1.02,1.02 0 0 0 -0.52,-0.29a3.5,3.5 0 0 0 -0.63,-0.04c-0.09,0 -0.17,0 -0.26,0c-1.12,0.3 -1.82,1.66 -1.42,2.82z" id="A"/>
  <path d="m0.23,2.82c0.11,0.98 0.72,1.75 1.59,1.98c0.89,0.24 1.76,-0.12 2.21,-0.93c0.26,-0.48 0.47,-0.99 0.33,-1.57c-0.04,-0.18 -0.24,-0.41 -0.38,-0.42c-0.14,-0.02 -0.32,0.18 -0.43,0.34c-0.08,0.14 -0.07,0.36 -0.12,0.54c-0.15,0.66 -0.58,0.99 -1.17,0.9c-0.58,-0.09 -0.97,-0.5 -0.99,-1.04c-0.03,-0.54 0.44,-1.18 0.94,-1.32c0.44,-0.12 0.86,0 1.29,0.13c0.12,0.04 0.35,-0.03 0.41,-0.13c0.07,-0.14 0.06,-0.42 -0.02,-0.55a1.13,1.13 0 0 0 -0.49,-0.45c-0.31,-0.13 -0.64,-0.18 -0.96,-0.26c-1.29,0.06 -2.36,1.39 -2.21,2.78z" id="C"/>
  <path d="m0.21,2.59c0.09,0.83 0.6,1.47 1.32,1.67c0.74,0.2 1.46,-0.1 1.83,-0.79c0.22,-0.4 0.39,-0.84 0.27,-1.33c-0.03,-0.14 -0.19,-0.33 -0.31,-0.35c-0.11,-0.01 -0.27,0.15 -0.35,0.29c-0.08,0.12 -0.07,0.3 -0.1,0.46c-0.13,0.55 -0.48,0.83 -0.97,0.75c-0.48,-0.07 -0.81,-0.41 -0.83,-0.87c-0.02,-0.46 0.36,-1 0.78,-1.11c0.37,-0.1 0.72,-0.01 1.07,0.11c0.1,0.03 0.3,-0.03 0.34,-0.12a0.61,0.61 0 0 0 -0.01,-0.46a0.96,0.96 0 0 0 -0.41,-0.38c-0.25,-0.11 -0.53,-0.15 -0.79,-0.22c-1.07,0.05 -1.96,1.17 -1.84,2.35z" id="E"/>
  <path d="m0.59,3.07c0.11,0.86 0.73,1.53 1.61,1.74c0.9,0.21 1.78,-0.11 2.24,-0.82c0.27,-0.42 0.47,-0.88 0.33,-1.38c-0.04,-0.16 -0.24,-0.36 -0.38,-0.37c-0.14,-0.01 -0.33,0.16 -0.43,0.3c-0.09,0.12 -0.08,0.32 -0.13,0.48c-0.16,0.57 -0.59,0.86 -1.18,0.78c-0.59,-0.07 -0.99,-0.43 -1.01,-0.91c-0.03,-0.48 0.44,-1.04 0.95,-1.16c0.45,-0.1 0.88,0 1.31,0.12c0.13,0.03 0.36,-0.03 0.42,-0.12a0.55,0.55 0 0 0 -0.02,-0.48a1.11,1.11 0 0 0 -0.5,-0.4c-0.31,-0.11 -0.65,-0.15 -0.97,-0.22c-1.31,0.05 -2.4,1.22 -2.24,2.44z" id="G"/>
 </defs>
 <g class="layer">
  <title>Layer 1</title>
  <g fill="none" fill-rule="evenodd" id="svg_1">
   <path d="m26.96,12.43c-11.44,-6.12 -22.93,8.44 -14.08,17.82l28.47,30.16c4.49,4.77 12.18,4.75 16.78,-0.04l9.48,-9.86c5.23,-5.45 3.89,-14.24 -2.71,-17.78l-37.94,-20.3z" fill="#d6b588" id="svg_2" transform="matrix(0.707107 -0.707107 0.707107 0.707107 -15.7009 42.4575)"/>
   <g id="svg_3" transform="matrix(0.891007 -0.45399 0.45399 0.891007 -15.6799 25.0736)">
    <ellipse cx="52.47" cy="34.78" fill="#FFF" id="svg_4" rx="2.13" ry="2.11"/>
    <ellipse cx="64.69" cy="31.79" fill="#FFF" id="svg_5" rx="2.13" ry="2.11"/>
    <ellipse cx="46" cy="27.2" fill="#FFF" id="svg_6" rx="1.91" ry="1.9"/>
    <ellipse cx="36.14" cy="26.63" fill="#FFF" id="svg_7" rx="1.91" ry="1.9"/>
    <ellipse cx="28.75" cy="33.06" fill="#FFF" id="svg_8" rx="1.91" ry="1.9"/>
    <ellipse cx="15.49" cy="46.29" fill="#FFF" id="svg_9" rx="2.64" ry="2.62"/>
    <ellipse cx="62.64" cy="50.95" fill="#FFF" id="svg_10" rx="2.64" ry="2.62"/>
    <ellipse cx="17.34" cy="26.7" fill="#FFF" id="svg_11" rx="1.75" ry="1.74"/>
    <ellipse cx="32.36" cy="14.3" fill="#FFF" id="svg_12" rx="1.75" ry="1.74"/>
    <ellipse cx="39.98" cy="38.82" fill="#FFF" id="svg_13" rx="1.75" ry="1.74"/>
    <ellipse cx="51.19" cy="44.6" fill="#FFF" id="svg_14" rx="1.96" ry="1.95"/>
    <ellipse cx="43.49" cy="51.15" fill="#FFF" id="svg_15" rx="1.96" ry="1.95"/>
    <ellipse cx="33.86" cy="49.53" fill="#FFF" id="svg_16" rx="1.96" ry="1.95"/>
    <ellipse cx="27.37" cy="42.66" fill="#FFF" id="svg_17" rx="1.96" ry="1.95"/>
    <ellipse cx="52.23" cy="16.19" fill="#FFF" id="svg_18" rx="1.79" ry="1.78"/>
    <g id="svg_19" transform="rotate(28 -46.005 70.63)">
     <mask id="b">
      <use href="#a" id="svg_20"/>
     </mask>
     <path d="m-1.92,6.29l8.12,0l0,-8.1l-8.12,0l0,8.1z" fill="#000" id="svg_21" mask="url(#b)"/>
    </g>
    <g id="svg_22" transform="rotate(28 -28.99 82.068)">
     <mask id="d">
      <use href="#c" id="svg_23"/>
     </mask>
     <path d="m5.14,-2.9l2.48,8.11l-8.09,2.48l-2.48,-8.12l8.09,-2.47z" fill="#000" id="svg_24" mask="url(#d)"/>
    </g>
    <g id="svg_25" transform="rotate(28 -26.082 101.97)">
     <mask id="f">
      <use href="#e" id="svg_26"/>
     </mask>
     <path d="m1.91,-3.91l6.75,5.58l-5.56,6.74l-6.76,-5.59l5.57,-6.73z" fill="#000" id="svg_27" mask="url(#f)"/>
    </g>
    <g id="svg_28" transform="rotate(28 -38.075 118.345)">
     <mask id="h">
      <use href="#g" id="svg_29"/>
     </mask>
     <path d="m-4.05,2.6l6.34,-6.78l6.75,6.32l-6.34,6.77l-6.75,-6.31z" fill="#000" id="svg_30" mask="url(#h)"/>
    </g>
    <g id="svg_31" transform="rotate(28 -54.811 120.052)">
     <mask id="j">
      <use href="#i" id="svg_32"/>
     </mask>
     <path d="m-6.07,0.63l12.6,-6.25l6.23,12.57l-12.61,6.24l-6.22,-12.56z" fill="#000" id="svg_33" mask="url(#j)"/>
    </g>
    <g id="svg_34" transform="rotate(28 -73.178 108.426)">
     <mask id="l">
      <use href="#k" id="svg_35"/>
     </mask>
     <path d="m-4.91,6.97l4.6,-12.21l11.94,4.5l-4.59,12.21l-11.95,-4.5z" fill="#000" id="svg_36" mask="url(#l)"/>
    </g>
    <g id="svg_37" transform="rotate(28 -73.051 86.285)">
     <mask id="n">
      <use href="#m" id="svg_38"/>
     </mask>
     <path d="m-3.71,7.25l4.36,-11.06l11.16,4.4l-4.35,11.06l-11.17,-4.4z" fill="#000" id="svg_39" mask="url(#n)"/>
    </g>
    <g id="svg_40" transform="rotate(28 -62.923 71.85)">
     <mask id="p">
      <use href="#o" id="svg_41"/>
     </mask>
     <path d="m-4.38,9.05l2.25,-13.31l13.53,2.29l-2.26,13.31l-13.52,-2.29z" fill="#000" id="svg_42" mask="url(#p)"/>
    </g>
    <g id="svg_43" transform="rotate(28 -60.023 144.652)">
     <mask id="r">
      <use href="#q" id="svg_44"/>
     </mask>
     <path d="m-6.84,0.69l14.67,-7.27l7.24,14.63l-14.67,7.26l-7.24,-14.62z" fill="#000" id="svg_45" mask="url(#r)"/>
    </g>
    <g id="svg_46" transform="rotate(28 -91.931 118.18)">
     <mask id="t">
      <use href="#s" id="svg_47"/>
     </mask>
     <path d="m-0.93,-3.64l14.68,1.83l-1.82,14.62l-14.67,-1.82l1.81,-14.63z" fill="#000" id="svg_48" mask="url(#t)"/>
    </g>
    <g id="svg_49" transform="rotate(28 -97.135 79.287)">
     <mask id="v">
      <use href="#u" id="svg_50"/>
     </mask>
     <path d="m-1.62,-3.51l14.67,1.82l-1.82,14.63l-14.67,-1.82l1.82,-14.63z" fill="#000" id="svg_51" mask="url(#v)"/>
    </g>
    <g id="svg_52" transform="rotate(28 -73.31 46.485)">
     <mask id="x">
      <use href="#w" id="svg_53"/>
     </mask>
     <path d="m-1.63,-3.57l14.68,1.82l-1.82,14.63l-14.68,-1.83l1.82,-14.62z" fill="#000" id="svg_54" mask="url(#x)"/>
    </g>
    <g id="svg_55" transform="rotate(28 -50.846 95.604)">
     <mask id="z">
      <use href="#y" id="svg_56"/>
     </mask>
     <path d="m-4.29,5.28l4.5,-9.39l9.43,4.53l-4.5,9.38l-9.43,-4.52z" fill="#000" id="svg_57" mask="url(#z)"/>
    </g>
    <g id="svg_58" transform="rotate(28 -39.148 44.782)">
     <mask id="B">
      <use href="#A" id="svg_59"/>
     </mask>
     <path d="m-1.8,-0.59l6.32,-1.39l1.58,7.17l-6.32,1.39l-1.58,-7.17z" fill="#000" id="svg_60" mask="url(#B)"/>
    </g>
    <g id="svg_61" transform="rotate(28 -6.41 68.7)">
     <mask id="D">
      <use href="#C" id="svg_62"/>
     </mask>
     <path d="m-0.94,6.22l6.49,0l0,-7.52l-6.49,0l0,7.52z" fill="#000" id="svg_63" mask="url(#D)"/>
    </g>
    <g id="svg_64" transform="rotate(28 -.79 109.908)">
     <mask id="F">
      <use href="#E" id="svg_65"/>
     </mask>
     <path d="m-1.57,6.42l7.01,0l0,-8.28l-7.01,0l0,8.28z" fill="#000" id="svg_66" mask="url(#F)"/>
    </g>
    <g id="svg_67" transform="rotate(28 -24.385 141.129)">
     <mask id="H">
      <use href="#G" id="svg_68"/>
     </mask>
     <path d="m-0.34,5.8l6.07,0l0,-6.1l-6.07,0l0,6.1z" fill="#000" id="svg_69" mask="url(#H)"/>
    </g>
   </g>
  </g>
 </g>
</svg>