<?xml version="1.0"?>
<svg width="72" height="72" xmlns="http://www.w3.org/2000/svg" xmlns:svg="http://www.w3.org/2000/svg">
 <g class="layer">
  <title>Layer 1</title>
  <g fill="none" fill-rule="evenodd" id="svg_1">
   <path d="m44.55,21.54l-26.41,-4.43a8.26,8.26 0 0 0 -7.06,2.16l-8.53,8.12a8.2,8.2 0 0 0 -1.97,8.97l10.92,27.45a8.25,8.25 0 0 0 9.35,5.01l28.82,-6.01a8.22,8.22 0 0 0 6.49,-6.98l1.77,-13.66a8.19,8.19 0 0 0 -1.02,-5.13l-6.57,-11.48a8.24,8.24 0 0 0 -5.79,-4.02" fill="#d6b588" id="svg_2"/>
   <path d="m41.49,4.14c-7.2,-1.89 -12.06,-1.2 -14.8,-0.14c-2.73,1.05 -5.8,1.84 -6.42,3.34c-0.41,1 -0.16,16.63 0.75,46.89c9.45,5.01 18.64,5.01 27.57,0c0.1,-1.95 0.1,-16.77 0,-44.46c0.07,-2.49 -2.29,-4.36 -7.1,-5.63z" fill="#FFF" id="svg_3"/>
   <g fill="#060606" fill-rule="nonzero" id="svg_4">
    <path d="m22.23,48.09c0,1.06 0.11,1.94 -0.02,2.77c-0.24,1.66 0.42,2.51 1.9,3.19c3.84,1.76 7.87,2.19 12,2.05c3.61,-0.12 7.09,-0.92 10.46,-2.22c0.77,-0.29 1.55,-0.37 1.95,0.54c0.38,0.89 -0.14,1.51 -0.86,1.9c-2.47,1.33 -5.16,1.91 -7.88,2.29c-4.81,0.69 -9.61,0.51 -14.3,-0.93c-1.64,-0.5 -3.21,-1.18 -4.53,-2.37c-0.73,-0.67 -1.15,-1.41 -1.21,-2.4c-0.17,-2.85 -0.22,-5.69 -0.21,-8.55c0.02,-5.58 -0.16,-11.17 -0.43,-16.75c-0.15,-3.25 -0.03,-6.51 -0.05,-9.77c0,-0.86 -0.07,-1.72 -0.05,-2.57c0.02,-0.8 0.34,-1.5 1.2,-1.57c0.87,-0.07 1.28,0.55 1.41,1.36c0.08,0.52 0.2,1.06 0.13,1.58c-0.16,1.19 0.42,1.73 1.42,2.16c5.33,2.32 10.87,2.55 16.51,1.78c2.17,-0.3 4.31,-0.74 6.28,-1.79c0.81,-0.43 1.21,-1 1.15,-2.02c-0.1,-1.66 -0.03,-3.34 -0.03,-5.18c-2.14,1.03 -4.33,1.69 -6.63,1.92c-5.29,0.53 -10.57,0.65 -15.76,-0.83c-1.12,-0.32 -2.18,-0.76 -3.12,-1.48c-2.45,-1.88 -2.4,-4.86 0.11,-6.63c1.51,-1.07 3.26,-1.49 5.02,-1.84c6.14,-1.23 12.18,-0.97 18.09,1.27c0.89,0.34 2.04,0.66 1.63,1.96c-0.42,1.3 -1.55,0.88 -2.44,0.57c-6.26,-2.16 -12.56,-2.22 -18.91,-0.49a7.1,7.1 0 0 0 -1.65,0.67c-1.26,0.72 -1.3,1.6 -0.09,2.39c1.68,1.11 3.62,1.51 5.55,1.74c4.28,0.52 8.58,0.57 12.85,-0.16c2.16,-0.38 4.24,-0.95 5.84,-2.71c0.81,-0.9 1.6,-0.51 1.94,0.69c0.65,2.23 0.51,4.51 0.43,6.77c-0.35,9.42 0.22,18.85 0.01,28.27c-0.05,2 -0.06,3.99 -0.22,5.99c-0.07,0.8 -0.22,1.65 -1.21,1.66c-1.01,0 -1.11,-0.87 -1.18,-1.67a3.77,3.77 0 0 1 -0.01,-0.73c0.08,-0.77 -0.22,-0.75 -0.8,-0.51c-4.78,1.98 -9.75,2.5 -14.86,2.05c-3.22,-0.28 -6.37,-0.86 -9.42,-2.4l-0.01,0zm24.98,-18.24c-0.97,0.42 -1.7,0.82 -2.48,1.06c-7.37,2.19 -14.71,2.33 -21.98,-0.49c-0.53,-0.2 -0.72,-0.16 -0.68,0.45c0.04,0.78 0.02,1.55 0.03,2.33c0.05,3.1 0.03,3.16 2.95,4.15c5.41,1.83 10.92,1.9 16.48,0.85c1.76,-0.33 3.48,-0.79 5.02,-1.78c0.4,-0.25 0.67,-0.53 0.66,-1.05c-0.01,-1.78 0,-3.57 0,-5.52zm-24.94,9.34c0,1.07 0,2.12 0,3.18c-0.01,3.03 -0.03,3.09 2.79,4.04c5.41,1.83 10.93,1.89 16.49,0.84c1.77,-0.34 3.49,-0.78 5.02,-1.79c0.34,-0.23 0.68,-0.42 0.67,-0.92c-0.01,-1.75 0,-3.49 0,-5.27c-12.79,3.13 -13.38,3.12 -24.97,-0.08zm24.76,-17.86c-8.45,3.16 -16.73,3.25 -25.04,-0.05c0,1.1 0,2.2 0,3.29c0.03,2.8 0.01,2.85 2.59,3.72c5.42,1.83 10.93,1.89 16.49,0.84c1.92,-0.36 3.79,-0.87 5.42,-2.05c0.34,-0.24 0.56,-0.47 0.55,-0.96c-0.04,-1.59 -0.01,-3.17 -0.01,-4.79zm18.36,-14.17c-0.38,0.53 -0.25,0.99 -0.25,1.42c-0.03,4.33 -0.05,8.66 -0.08,13c0,0.37 0.02,0.74 -0.03,1.1c-0.09,0.72 -0.47,1.25 -1.22,1.32c-0.71,0.05 -1.15,-0.42 -1.36,-1.04c-0.28,-0.86 -0.34,-1.76 -0.35,-2.66c-0.08,-3.76 -0.25,-7.52 -0.07,-11.28c0.02,-0.37 0.25,-0.91 -0.24,-1.08c-0.35,-0.12 -0.56,0.37 -0.81,0.61c-0.91,0.89 -1.8,1.79 -2.83,2.53c-0.57,0.41 -1.18,0.67 -1.78,0.09c-0.59,-0.57 -0.39,-1.26 0.03,-1.78a50.09,50.09 0 0 1 5.9,-6.04c0.82,-0.7 1.86,-0.23 2.61,0.35c2.14,1.66 3.92,3.7 5.72,5.71c0.5,0.56 0.52,1.25 -0.1,1.73c-0.62,0.48 -1.25,0.24 -1.75,-0.29c-1.12,-1.2 -2.21,-2.41 -3.39,-3.69z" id="svg_5"/>
   </g>
  </g>
 </g>
</svg>