<?xml version="1.0"?>
<svg width="200" height="200" xmlns="http://www.w3.org/2000/svg" xmlns:svg="http://www.w3.org/2000/svg">
 <defs>
  <clipPath id="clip0_155_4610">
   <rect fill="white" height="200" id="svg_1" width="200"/>
  </clipPath>
 </defs>
 <g class="layer">
  <title>Layer 1</title>
  <g clip-path="url(#clip0_155_4610)" id="svg_2">
   <path d="m183.95,160.34l-2.6,7.1c-2.07,5.71 -5.63,10.76 -10.3,14.64c-6.57,5.45 -14.94,8.26 -23.47,7.87l-2.89,-0.13c-4.74,-0.22 -9.41,-1.24 -13.8,-3.02l-55.32,-22.45c-6.52,-2.64 -12.74,-5.97 -18.56,-9.91l-18.86,-12.81c-13.54,-9.18 -23,-23.25 -26.4,-39.25l-0.19,-0.88c-1,-4.69 -1.39,-9.49 -1.17,-14.28c0.62,-13.67 6.2,-26.64 15.69,-36.5l24.95,-25.91c6.12,-6.36 13.9,-10.87 22.46,-13.02c18.51,-4.66 38.01,2.3 49.38,17.64l51.99,70.11c8.35,11.26 12.85,24.91 12.85,38.92l0,0.55c0,7.27 -1.27,14.49 -3.76,21.33z" fill="#d6b588" id="svg_3" transform="matrix(1 0 0 1 -9 2)"/>
   <path d="m66.79,40.36l-47.89,27.63c-5.7,3.29 -9.22,9.37 -9.22,15.95l0,20.33c0,1.4 1.5,2.29 2.73,1.62l33.23,-18.2c1.23,-0.67 2.73,0.22 2.73,1.62l0,74.6c0,0.64 0.34,1.24 0.89,1.58l18.67,11.29c0.16,0.09 0.33,0.16 0.51,0.21l1.57,0.39l-0.46,-67l0,-68.43c0,-1.42 -1.53,-2.3 -2.76,-1.59z" fill="white" id="svg_4"/>
   <path d="m72.84,174.09c-1.56,-1.3 -3.89,-1.09 -5.19,0.47c-1.31,1.56 -1.1,3.88 0.46,5.19l4.73,-5.66zm-6.97,-16.05c0,2.03 1.65,3.68 3.68,3.68c2.04,0 3.69,-1.65 3.69,-3.68l-7.37,0zm3.68,18.88l-1.04,3.54l1.04,-3.54zm-23.91,-89.23l1.77,3.23l-1.77,-3.23zm3.46,77.8l2.17,-2.98l-2.17,2.98zm17.69,-125.13l-1.84,-3.19l1.84,3.19zm-54.38,65.53l-1.77,-3.23l1.77,3.23zm8.33,-34.71l47.89,-27.63l-3.68,-6.38l-47.89,27.62l3.68,6.39zm31.31,92.85l0,-74.72l-7.37,0l0,74.72l7.37,0zm-8.18,-79.57l-33.23,18.2l3.54,6.46l33.23,-18.2l-3.54,-6.46zm-30.5,19.81l0,-20.33l-7.37,0l0,20.33l7.37,0zm52.5,-62.32l0,68.43l7.37,0l0,-68.43l-7.37,0zm0,68.43l0,47.66l7.37,0l0,-47.66l-7.37,0zm4.6,66.54c-2.36,2.83 -2.36,2.83 -2.36,2.83c0,0 0,-0.01 0,-0.01c-0.01,0 -0.01,0 -0.01,0c0,0 -0.01,-0.01 -0.01,-0.01c-0.01,-0.01 -0.01,-0.01 -0.02,-0.02c-0.01,-0.01 -0.03,-0.02 -0.04,-0.04c-0.03,-0.02 -0.07,-0.05 -0.11,-0.09c-0.06,-0.07 -0.19,-0.19 -0.33,-0.38c-0.1,-0.13 -0.43,-0.57 -0.6,-1.26c-0.1,-0.38 -0.18,-0.95 -0.04,-1.61c0.14,-0.71 0.49,-1.36 0.99,-1.86c0.89,-0.89 1.91,-1 2.15,-1.03c0.36,-0.04 0.62,0 0.68,0c0.13,0.02 0.12,0.03 -0.18,-0.05l-2.08,7.07c0.42,0.12 0.88,0.24 1.32,0.29c0.21,0.03 0.58,0.06 1.01,0.02c0.33,-0.03 1.39,-0.17 2.31,-1.09c1.19,-1.19 1.2,-2.68 0.98,-3.56c-0.19,-0.72 -0.54,-1.2 -0.66,-1.36c-0.17,-0.22 -0.32,-0.38 -0.41,-0.46c-0.05,-0.05 -0.09,-0.09 -0.13,-0.12c-0.02,-0.02 -0.03,-0.03 -0.05,-0.05c-0.01,0 -0.01,-0.01 -0.02,-0.02c-0.01,0 -0.01,0 -0.01,-0.01c0,0 -0.01,0 -0.01,0c0,0 0,0 0,0c0,0 0,-0.01 -2.37,2.82zm0.12,-3.53c-3.22,-0.95 -7.3,-3.09 -11.08,-5.39c-3.72,-2.26 -6.89,-4.51 -8.24,-5.49l-4.33,5.96c1.44,1.05 4.79,3.42 8.74,5.83c3.89,2.36 8.64,4.92 12.83,6.16l2.08,-7.07zm-18.54,-84.08c0,-4.2 -4.5,-6.87 -8.18,-4.85l3.54,6.46c-1.23,0.67 -2.73,-0.21 -2.73,-1.61l7.37,0zm-7.37,74.72c0,1.71 0.8,3.38 2.26,4.44l4.33,-5.96c0.52,0.37 0.78,0.96 0.78,1.52l-7.37,0zm23.95,-120.48c-1.23,0.71 -2.76,-0.18 -2.76,-1.6l7.37,0c0,-4.25 -4.61,-6.91 -8.29,-4.78l3.68,6.38zm-57.99,59.11c1.23,-0.68 2.73,0.21 2.73,1.61l-7.37,0c0,4.2 4.5,6.87 8.18,4.85l-3.54,-6.46zm6.42,-37.87c-6.84,3.95 -11.06,11.25 -11.06,19.15l7.37,0c0,-5.26 2.81,-10.13 7.37,-12.76l-3.68,-6.39z" fill="black" id="svg_5"/>
   <path d="m83.38,40.39l46.76,27.47c5.31,3.11 8.7,8.67 9.06,14.81l1.08,18.52c0.08,1.47 -1.5,2.44 -2.77,1.7l-30.65,-17.84c-1.23,-0.72 -2.77,0.17 -2.77,1.59l0,11.81c0,0.68 0.37,1.3 0.97,1.63l15.11,8.16c0.59,0.32 0.96,0.95 0.96,1.62l0,23.47c0,1.39 -1.48,2.28 -2.71,1.63l-12.78,-6.8c-1.23,-0.65 -2.71,0.24 -2.71,1.63l0,35.97c0,0.64 -0.33,1.23 -0.87,1.57l-18.64,11.54c-1.23,0.76 -2.81,-0.13 -2.81,-1.57l0,-67.62l0,-62.17l0,-5.53c0,-1.42 1.54,-2.31 2.77,-1.59z" fill="white" id="svg_6"/>
   <path d="m78.76,65.47c0,-2.03 1.65,-3.68 3.69,-3.68c2.03,0 3.68,1.65 3.68,3.68l-7.37,0zm7.37,-17.96c0,2.04 -1.65,3.69 -3.68,3.69c-2.04,0 -3.69,-1.65 -3.69,-3.69l7.37,0zm21.35,80.65l1.73,-3.25l-1.73,3.25zm12.79,6.8l-1.73,3.25l1.73,-3.25zm1.74,-26.72l-1.75,3.24l1.75,-3.24zm20.11,-7.05l3.68,-0.21l-3.68,0.21zm-35.22,-1.11l1.75,-3.25l-1.75,3.25zm-3,67.25l-1.94,-3.13l1.94,3.13zm-18.64,11.54l1.94,3.13l-1.94,-3.13zm46.72,-111.01l1.87,-3.18l-1.87,3.18zm-1.86,3.17l-46.76,-27.46l3.73,-6.35l46.76,27.46l-3.73,6.35zm-46.8,104.7l18.64,-11.53l3.88,6.26l-18.64,11.54l-3.88,-6.27zm55.12,-74.32l-1.07,-18.52l7.35,-0.43l1.08,18.52l-7.36,0.43zm-18.18,10.07l-15.11,-8.16l3.5,-6.49l15.11,8.17l-3.5,6.48zm-0.97,21.85l0,-23.47l7.37,0l0,23.47l-7.37,0zm-18.2,32.43l0,-35.97l7.37,0l0,35.97l-7.37,0zm8.12,-40.85l12.79,6.79l-3.46,6.51l-12.79,-6.79l3.46,-6.51zm-6.96,-26.46l0,-11.81l7.37,0l0,11.81l-7.37,0zm8.31,-16.59l30.65,17.85l-3.71,6.37l-30.65,-17.85l3.71,-6.37zm-24.43,27.82l0,67.62l-7.37,0l0,-67.62l7.37,0zm0,-44.21l0,44.21l-7.37,0l0,-44.21l7.37,0zm0,-23.49l0,5.53l-7.37,0l0,-5.53l7.37,0zm16.12,44.66c0,-4.26 4.62,-6.92 8.31,-4.78l-3.71,6.37c1.23,0.72 2.77,-0.17 2.77,-1.59l-7.37,0zm-1.16,43.15c0,-4.17 4.44,-6.84 8.12,-4.88l-3.46,6.51c1.23,0.65 2.71,-0.24 2.71,-1.63l-7.37,0zm25.57,3.54c0,4.17 -4.44,6.84 -8.12,4.88l3.46,-6.51c-1.23,-0.65 -2.71,0.24 -2.71,1.63l7.37,0zm-2.9,-28.33c1.79,0.97 2.9,2.83 2.9,4.86l-7.37,0c0,0.68 0.37,1.3 0.97,1.62l3.5,-6.48zm22.04,-4.02c0.25,4.4 -4.49,7.31 -8.3,5.1l3.71,-6.37c-1.27,-0.74 -2.86,0.23 -2.77,1.7l7.36,-0.43zm-40.65,2.34c-1.79,-0.97 -2.9,-2.84 -2.9,-4.87l7.37,0c0,-0.67 -0.37,-1.29 -0.97,-1.62l-3.5,6.49zm-3.19,60.88c-0.54,0.33 -0.87,0.93 -0.87,1.56l7.37,0c0,1.92 -0.99,3.7 -2.62,4.7l-3.88,-6.26zm-14.76,17.8c-3.68,2.28 -8.44,-0.37 -8.44,-4.7l7.37,0c0,-1.44 -1.58,-2.33 -2.81,-1.57l3.88,6.27zm-3.84,-138.43c1.22,0.72 2.77,-0.16 2.77,-1.59l-7.37,0c0,-4.27 4.64,-6.93 8.33,-4.76l-3.73,6.35zm50.49,21.11c6.37,3.74 10.44,10.41 10.87,17.78l-7.35,0.43c-0.29,-4.92 -3.01,-9.37 -7.25,-11.86l3.73,-6.35z" fill="black" id="svg_7"/>
   <path d="m67.52,165.39c0.39,0.57 1.16,1.36 2.4,1.4c1.04,0.03 1.86,-0.85 2.41,-1.67c0.57,-0.87 0.74,-1.92 0.77,-2.96l0.11,-4.13l0.01,-2.31l-7.34,0.03c0,0 -0.01,1.38 -0.02,2.76c0,0.46 0.2,1.12 0.29,1.61c0.24,1.31 0.65,3.09 0.88,4.03c0.1,0.44 0.23,0.87 0.49,1.24z" fill="black" id="svg_8"/>
   <path d="m83.52,55.91c-0.44,-0.01 -3.08,-1.25 -3.57,-2.61c-0.29,-0.8 -0.92,-3.23 -1.17,-4.89c0,-1.38 0,-1.84 0,-1.84l7.36,-0.44l0.17,4.14c0.05,1.27 -0.3,3.24 -0.3,3.24c0,0 -0.58,2.09 -1.63,2.37c-0.33,0.08 -0.43,0.05 -0.86,0.03z" fill="black" id="svg_9"/>
  </g>
 </g>
</svg>